<?xml version="1.0" standalone="no"?>
<!DOCTYPE svg PUBLIC "-//W3C//DTD SVG 20010904//EN"
 "http://www.w3.org/TR/2001/REC-SVG-20010904/DTD/svg10.dtd">
<svg version="1.0" xmlns="http://www.w3.org/2000/svg"
 width="1024.000000pt" height="1024.000000pt" viewBox="0 0 1024.000000 1024.000000"
 preserveAspectRatio="xMidYMid meet">

<g transform="translate(0.000000,1024.000000) scale(0.100000,-0.100000)"
fill="#000000" stroke="none">
<path d="M0 5120 l0 -5120 5120 0 5120 0 0 5120 0 5120 -5120 0 -5120 0 0
-5120z m5216 4351 c13 -19 21 -38 18 -43 -3 -5 2 -19 13 -31 l18 -22 -24 20
c-20 17 -23 17 -18 3 7 -20 -23 -34 -36 -16 -19 27 4 -56 31 -113 17 -35 25
-64 20 -71 -5 -9 -8 -6 -8 8 0 12 -6 26 -13 33 -11 8 -13 0 -12 -47 2 -66 -11
-107 -30 -92 -18 15 -23 -41 -10 -113 l10 -57 28 15 c25 13 32 13 55 1 l27
-14 -30 -8 c-16 -4 -36 -14 -44 -22 -13 -13 -16 -12 -22 4 -6 16 -8 16 -13 4
-3 -8 -5 -22 -4 -30 1 -8 -1 -32 -6 -52 -6 -25 -12 -35 -22 -31 -9 3 -14 -2
-14 -16 0 -12 -5 -21 -11 -21 -7 0 -9 10 -5 24 3 14 1 28 -5 32 -9 5 -10 -8
-7 -46 7 -69 -6 -44 -22 45 -16 81 -32 105 -72 105 -19 0 -28 4 -25 13 5 14
70 11 75 -4 2 -5 7 -9 12 -9 15 0 4 32 -15 46 -18 13 -18 14 2 14 21 0 21 1 7
33 -9 17 -19 39 -24 47 -69 112 -65 97 -47 153 9 29 25 70 36 91 11 21 18 43
15 47 -3 5 0 9 6 9 6 0 15 11 21 24 6 13 22 30 35 37 17 9 21 15 12 20 -7 4
-16 5 -21 2 -5 -3 -13 1 -18 8 -7 11 -9 11 -9 1 0 -7 -6 -20 -12 -27 -30 -33
-38 -45 -38 -55 0 -9 -14 -14 -33 -11 -5 1 -6 -7 -3 -17 7 -19 -42 -76 -79
-93 -38 -18 -100 -60 -79 -54 43 11 140 -22 121 -42 -4 -4 -13 -1 -19 5 -20
20 -32 13 -13 -8 10 -11 13 -20 7 -20 -6 0 -13 4 -17 10 -3 5 -22 14 -41 19
-46 13 -78 1 -126 -47 -40 -38 -53 -34 -16 5 24 26 13 31 -18 8 -10 -8 -23
-15 -28 -15 -5 0 17 19 49 43 218 162 270 221 336 381 18 45 39 96 47 115 l14
34 35 -89 c20 -49 46 -104 59 -123z m-155 -88 c-8 -15 -10 -15 -11 -2 0 17 10
32 18 25 2 -3 -1 -13 -7 -23z m193 -47 c24 -58 83 -115 136 -131 21 -7 19 -3
-13 28 -21 19 -44 38 -52 41 -8 3 -15 11 -15 17 0 13 14 4 70 -48 32 -29 77
-62 173 -128 38 -26 49 -52 22 -52 -8 0 -12 4 -9 8 2 4 -17 24 -43 43 -27 20
-52 39 -58 43 -12 10 -39 14 -85 15 -42 0 -80 17 -40 18 23 0 23 1 8 16 -15
16 -18 16 -33 0 -9 -9 -22 -13 -28 -9 -8 5 -7 8 2 11 9 3 6 12 -11 30 -13 15
-15 20 -5 13 9 -8 21 -11 25 -7 8 9 -27 38 -38 31 -3 -2 -6 5 -6 17 1 12 -5
23 -12 25 -8 3 -10 -2 -6 -14 3 -10 -2 -6 -10 9 -16 26 -13 58 5 58 5 0 15
-15 23 -34z m44 -21 c-3 -3 -9 2 -12 12 -6 14 -5 15 5 6 7 -7 10 -15 7 -18z
m-298 -35 c0 -5 -5 -10 -11 -10 -5 0 -7 5 -4 10 3 6 8 10 11 10 2 0 4 -4 4
-10z m-37 -53 c4 -10 -6 -14 -36 -14 -23 0 -33 1 -22 4 11 3 24 9 30 14 13 13
22 11 28 -4z m325 -102 c-7 -16 -17 -24 -26 -20 -8 3 -23 -2 -33 -11 -22 -20
-25 -6 -5 21 8 11 19 16 30 12 10 -4 19 -1 22 8 4 8 10 15 15 15 5 0 3 -11 -3
-25z m200 -20 c-3 -3 -9 2 -12 12 -6 14 -5 15 5 6 7 -7 10 -15 7 -18z m-798
-77 c56 -59 64 -76 28 -56 -13 6 -30 13 -38 14 -8 1 -25 5 -37 7 -26 7 -37 -6
-42 -45 -1 -9 -4 -9 -11 2 -5 8 -12 11 -16 7 -4 -3 -1 -13 6 -22 10 -12 10
-15 -3 -15 -8 0 -17 -7 -21 -15 -4 -12 0 -14 19 -9 30 7 34 -12 6 -21 -32 -10
-36 -43 -10 -71 16 -17 18 -24 8 -25 -8 0 2 -7 21 -14 l35 -13 -32 -1 c-18 -1
-36 5 -40 13 -10 17 -73 50 -81 42 -6 -7 -8 -6 38 -34 22 -13 29 -22 18 -22
-9 0 -20 5 -23 10 -3 6 -11 10 -17 10 -7 0 -6 -5 1 -14 7 -8 45 -22 86 -31 40
-9 79 -23 86 -32 11 -13 11 -15 -6 -11 -11 2 -25 -3 -32 -12 -11 -13 -12 -13
-13 1 0 16 -24 29 -80 45 -14 4 -28 11 -32 17 -3 6 -27 10 -52 10 -25 -1 -46
3 -46 8 0 5 -4 9 -8 9 -5 0 -9 -7 -9 -15 0 -10 10 -15 31 -15 30 0 118 -28
132 -43 4 -4 19 -7 33 -7 43 -1 4 -16 -76 -30 -48 -9 -73 -18 -73 -27 0 -8
-13 -13 -39 -13 -21 0 -74 -11 -117 -25 -43 -14 -108 -30 -144 -36 -81 -13
-131 -28 -147 -44 -6 -7 -32 -16 -57 -19 -25 -4 -59 -14 -75 -22 -40 -20 -137
-32 -127 -15 4 7 16 9 27 6 11 -4 25 -2 32 3 7 6 23 12 37 15 14 2 -2 3 -35 1
l-60 -4 39 15 c56 21 58 28 7 20 -38 -6 -43 -5 -38 9 6 14 3 15 -13 6 -11 -6
-20 -15 -20 -20 0 -6 -5 -10 -11 -10 -5 0 -7 4 -4 10 4 6 -5 8 -22 6 -15 -2
-22 -1 -15 1 6 2 12 9 12 15 0 5 7 8 15 5 8 -4 17 -2 20 3 3 5 -3 10 -12 13
-21 5 -17 6 59 29 34 10 45 17 39 27 -6 9 -14 10 -27 3 -29 -15 -198 -54 -220
-51 -10 2 -25 0 -33 -5 -9 -6 -12 -5 -9 5 3 8 16 15 29 17 49 5 154 26 159 32
3 4 28 17 57 30 28 12 56 32 61 44 9 18 11 18 11 3 1 -14 5 -16 21 -7 10 6 32
12 47 14 45 6 165 47 208 70 60 33 201 87 216 83 8 -2 10 -2 6 1 -10 5 12 32
27 32 18 0 58 45 49 55 -5 4 -3 5 4 1 16 -9 92 30 165 84 48 36 56 46 47 61
-9 18 -8 18 23 1 18 -9 44 -29 58 -44z m560 49 c0 -7 -6 -22 -14 -32 -12 -16
-16 -17 -30 -6 -22 18 -20 30 3 24 11 -3 21 2 24 11 8 19 17 21 17 3z m-338
-29 c-8 -8 -9 -4 -5 13 4 13 8 18 11 10 2 -7 -1 -18 -6 -23z m-153 -58 c13
-17 21 -33 19 -35 -6 -6 -88 95 -88 108 0 10 25 -17 69 -73z m91 60 c11 -11
17 -20 13 -20 -11 1 -43 26 -43 34 0 11 9 7 30 -14z m772 12 c6 -13 111 -97
163 -130 28 -17 56 -37 63 -43 19 -16 259 -129 275 -129 7 0 17 -4 23 -9 12
-10 182 -76 254 -97 30 -9 60 -20 65 -24 11 -9 148 -46 205 -55 19 -3 52 -14
72 -24 34 -17 38 -17 43 -2 4 13 19 17 61 19 105 4 215 53 330 145 60 47 84
80 84 115 1 29 40 -29 40 -60 0 -39 -14 -69 -49 -103 -17 -16 -31 -40 -31 -53
0 -14 -4 -21 -11 -16 -8 4 -9 -1 -4 -17 9 -26 35 -50 47 -43 5 3 8 1 8 -5 0
-6 18 -20 41 -31 23 -12 39 -24 36 -27 -3 -2 -14 0 -25 6 -28 15 -32 14 -25
-6 4 -11 3 -14 -6 -9 -21 13 -71 18 -71 7 0 -6 16 -13 35 -17 19 -3 37 -10 40
-14 7 -11 -106 -4 -135 9 -22 10 -21 11 15 7 l40 -5 -37 17 c-45 20 -48 32
-10 33 16 1 20 3 10 6 -24 6 -22 18 5 31 21 10 21 11 -7 11 l-29 1 21 23 c12
13 22 29 22 35 0 7 5 12 10 12 6 0 10 9 10 20 0 26 -8 25 -34 -2 -11 -13 -45
-42 -73 -64 l-53 -42 35 -4 c19 -2 35 0 35 4 0 18 16 6 17 -13 2 -18 -2 -20
-25 -15 l-27 6 25 -15 25 -16 -29 4 c-16 3 -46 -1 -67 -8 -35 -13 -43 -11
-118 18 -77 31 -100 47 -64 47 9 0 14 2 11 5 -3 4 -18 3 -33 -1 -22 -5 -26
-11 -21 -31 6 -22 5 -23 -16 -11 -13 7 -25 16 -28 19 -11 14 -50 29 -74 29
-19 0 -24 -4 -21 -20 4 -23 -2 -24 -39 -10 -17 6 -26 6 -26 -1 0 -6 -7 -6 -20
1 -11 6 -20 7 -20 3 0 -4 -6 0 -12 9 -16 19 -54 29 -128 34 l-55 3 35 -14 c40
-16 30 -19 -17 -6 -19 6 -35 6 -38 1 -3 -5 17 -12 45 -16 46 -6 72 -24 33 -24
-24 1 -185 35 -248 53 -62 17 -130 28 -121 19 10 -9 96 -31 126 -32 20 0 22
-2 10 -10 -11 -8 -9 -9 10 -5 18 4 28 0 37 -13 11 -19 11 -19 -49 -1 -70 22
-191 48 -413 90 -88 16 -176 33 -195 38 l-35 9 35 2 c19 1 51 2 70 2 32 -1 33
0 10 7 -26 9 -25 10 36 29 23 7 35 7 44 -1 10 -9 11 -9 8 3 -3 8 2 21 11 28
13 10 9 11 -24 6 -22 -4 -44 -9 -50 -12 -25 -15 -144 -54 -175 -58 l-35 -4 40
20 c22 11 33 20 25 20 -27 1 17 21 83 37 34 9 67 19 72 23 6 4 27 13 48 19 20
7 37 17 37 22 0 5 -2 9 -4 9 -2 0 -11 3 -20 6 -10 4 -16 1 -16 -8 0 -10 -12
-13 -42 -11 -39 2 -40 1 -13 -6 l30 -9 -27 -1 c-16 0 -28 -6 -28 -12 0 -6 -7
-9 -15 -5 -8 3 -27 1 -42 -5 -19 -7 -29 -7 -31 0 -2 6 -8 9 -13 5 -5 -3 -9 0
-9 5 0 10 24 15 72 15 9 0 15 3 12 8 -3 4 -19 8 -36 8 -21 0 -31 6 -35 20 -7
25 -23 26 -23 3 0 -10 -16 -38 -35 -62 -35 -44 -35 -44 -35 6 0 4 8 8 18 8 12
0 16 7 14 21 -2 14 6 27 23 38 14 9 23 22 19 28 -4 6 0 16 8 22 15 11 18 17
18 35 0 14 34 8 47 -9 6 -8 15 -12 19 -8 4 4 13 3 21 -3 9 -9 13 -8 13 0 0 6
-6 14 -14 17 -8 3 -17 16 -20 30 -4 13 -11 24 -16 24 -6 0 -15 11 -20 25 l-10
25 -42 -17 c-24 -9 -50 -21 -58 -26 -8 -5 -3 2 13 16 15 15 26 32 25 39 -6 26
43 20 67 -7 13 -16 28 -24 34 -21 6 4 34 -13 62 -38 28 -25 55 -46 60 -46 13
0 -1 30 -15 30 -6 0 -27 16 -46 35 -19 19 -39 35 -45 35 -18 0 -56 31 -50 41
7 11 22 12 27 1z m-234 -9 c-10 -2 -28 -2 -40 0 -13 2 -5 4 17 4 22 1 32 -1
23 -4z m-1463 -13 c24 -6 19 -8 -30 -9 -78 -1 -189 -33 -240 -69 -46 -32 -78
-83 -77 -122 0 -16 -6 -31 -14 -34 -8 -3 -14 -1 -14 5 0 6 -7 17 -16 26 -43
44 59 164 168 198 46 15 174 17 223 5z m1561 -19 c-9 -16 -29 -40 -45 -54 -27
-23 -34 -24 -61 -14 -41 16 -38 27 6 17 38 -9 54 1 89 54 23 35 29 33 11 -3z
m1001 13 c65 -22 126 -68 146 -110 26 -54 31 -107 13 -140 -13 -25 -15 -26
-17 -9 -1 11 0 30 0 41 3 29 -25 93 -52 123 -39 42 -130 78 -220 87 -60 5 -75
9 -57 15 45 13 138 9 187 -7z m-1525 -38 c7 5 7 1 0 -12 -6 -11 -7 -25 -1 -35
7 -15 1 -20 -39 -33 -47 -16 -85 -47 -111 -91 -11 -18 -12 -17 -6 8 3 16 15
38 25 50 11 11 20 26 20 32 0 6 22 22 49 35 43 20 49 26 47 49 -2 14 -1 18 1
8 2 -9 9 -14 15 -11z m255 19 c3 -9 3 -19 -1 -22 -7 -7 -36 16 -36 28 0 15 30
10 37 -6z m-3100 -17 c-3 -8 -6 -5 -6 6 -1 11 2 17 5 13 3 -3 4 -12 1 -19z
m2893 -33 c0 -5 -5 -3 -10 5 -5 8 -10 20 -10 25 0 6 5 3 10 -5 5 -8 10 -19 10
-25z m-2895 -100 c6 -106 24 -180 25 -105 l1 35 13 -38 c48 -132 196 -251 361
-291 l60 -14 -56 -1 c-62 -1 -165 27 -218 59 -25 16 -37 18 -45 10 -8 -8 -7
-11 4 -8 8 2 14 -1 15 -7 1 -22 50 -65 96 -84 26 -12 50 -25 53 -30 4 -5 16
-7 29 -5 20 4 20 4 2 -5 -19 -8 -18 -9 8 -16 15 -4 26 -10 23 -12 -9 -9 -82
20 -141 58 -69 44 -155 137 -114 124 22 -7 22 -6 10 9 -13 15 -16 15 -29 2
-13 -13 -13 -20 3 -63 41 -109 123 -254 179 -317 18 -20 26 -24 26 -13 0 11
10 6 32 -16 18 -18 32 -35 30 -39 -1 -4 5 -5 13 -2 9 4 15 0 15 -9 0 -18 -28
-16 -40 2 -4 8 -12 11 -18 7 -6 -3 -13 3 -17 14 -4 11 -10 18 -15 15 -5 -3
-29 18 -54 47 -25 29 -46 48 -46 42 0 -15 43 -71 80 -104 43 -39 148 -110 162
-110 17 0 -13 31 -41 42 -21 7 -23 11 -11 18 10 7 18 5 25 -4 6 -7 14 -13 20
-14 11 -1 24 -34 18 -44 -2 -5 1 -8 8 -8 7 0 10 -3 6 -6 -3 -3 -27 4 -52 15
-61 27 -66 26 -31 -4 43 -37 14 -30 -52 11 -65 41 -112 83 -112 98 0 6 7 2 15
-8 8 -11 18 -17 21 -13 3 3 -17 30 -45 59 -49 50 -119 176 -191 345 -34 82
-70 242 -59 270 5 13 9 45 9 71 0 51 11 154 16 149 2 -1 6 -52 9 -112z m2764
99 c2 -2 -10 -4 -27 -4 -17 0 -34 4 -37 10 -5 9 53 3 64 -6z m-64 -32 c-3 -3
-11 0 -18 7 -9 10 -8 11 6 5 10 -3 15 -9 12 -12z m555 -2 c0 -5 -2 -10 -4 -10
-3 0 -8 5 -11 10 -3 6 -1 10 4 10 6 0 11 -4 11 -10z m80 -31 c0 -6 -4 -7 -10
-4 -5 3 -10 11 -10 16 0 6 5 7 10 4 6 -3 10 -11 10 -16z m-766 -23 c17 7 23
-1 30 -48 6 -42 1 -46 -25 -22 -16 15 -17 14 -12 -5 6 -24 -4 -26 -31 -6 -11
8 -26 15 -34 15 -7 0 -21 7 -30 16 -14 15 -14 18 9 35 13 10 27 19 32 19 4 0
6 3 6 8 -4 22 3 23 21 4 11 -12 26 -19 34 -16z m3423 -23 c-4 -32 -9 -69 -12
-83 -5 -24 -5 -24 4 -2 6 12 15 22 20 22 18 0 -2 -74 -36 -135 -18 -33 -36
-68 -39 -77 -4 -10 -10 -18 -14 -18 -5 0 -13 -13 -19 -30 -10 -31 -29 -38 -48
-19 -7 7 -29 0 -75 -25 -36 -20 -73 -36 -84 -35 -18 0 -18 1 1 10 20 8 -45 4
-105 -7 -19 -4 -22 -2 -10 6 8 5 26 10 39 10 38 0 204 83 250 126 56 50 87
114 108 224 10 49 20 90 22 90 2 0 1 -26 -2 -57z m-5117 0 c0 -101 201 -261
341 -271 33 -2 59 -7 59 -11 0 -3 -25 -21 -55 -39 -52 -32 -64 -45 -47 -55 4
-2 1 -2 -6 -1 -7 2 -17 -6 -22 -19 -9 -22 -9 -22 -9 -1 -1 21 -1 21 -38 3 -34
-16 -72 -22 -211 -34 -37 -3 -42 -2 -31 11 6 8 26 14 43 12 53 -3 96 2 96 11
0 5 -17 5 -41 0 -59 -14 -60 -3 -3 15 30 10 37 15 19 12 -16 -2 -61 -13 -100
-25 -89 -28 -156 -41 -149 -30 3 5 13 9 23 9 10 0 21 3 25 8 8 8 12 8 54 12
l27 2 -25 7 c-19 6 -24 13 -22 32 4 28 31 61 43 53 13 -8 11 20 -3 34 -7 7
-16 8 -22 3 -18 -15 -17 115 1 187 8 35 13 71 10 82 -3 14 1 17 19 16 17 -1
24 -7 24 -23z m2540 3 c0 -3 -4 -8 -10 -11 -5 -3 -10 -1 -10 4 0 6 5 11 10 11
6 0 10 -2 10 -4z m-2175 -36 c4 -6 -5 -10 -20 -10 -15 0 -24 4 -20 10 3 6 12
10 20 10 8 0 17 -4 20 -10z m4775 -6 c0 -8 -4 -12 -10 -9 -5 3 -10 10 -10 16
0 5 5 9 10 9 6 0 10 -7 10 -16z m-1306 -13 c-18 -11 -35 -24 -38 -30 -11 -17
-26 -13 -20 4 7 17 51 44 74 45 8 0 1 -9 -16 -19z m106 9 c11 -7 3 -10 -28
-10 -35 0 -50 -6 -73 -29 -29 -30 -40 -29 -16 1 15 19 66 47 87 47 8 1 22 -4
30 -9z m-2093 -79 c10 -6 13 -11 6 -11 -19 0 -53 41 -53 64 1 16 4 14 14 -10
8 -18 22 -37 33 -43z m-1322 27 c9 -18 22 -44 30 -58 8 -14 14 -43 14 -65 l-2
-40 -6 40 c-4 22 -19 63 -34 92 -27 53 -31 63 -22 63 3 0 12 -15 20 -32z
m1914 10 c-6 -13 -18 -31 -27 -40 -17 -20 -3 -25 17 -5 11 10 14 9 18 -1 3 -6
9 -10 14 -6 17 10 9 -3 -13 -22 -19 -15 -20 -16 -9 -1 9 11 10 17 2 17 -6 0
-16 -11 -21 -25 -5 -14 -13 -25 -17 -25 -5 0 -32 -18 -62 -41 -59 -45 -74 -45
-42 0 12 16 18 36 15 45 -4 12 -2 15 9 10 8 -3 18 0 23 7 4 8 3 10 -4 5 -7 -4
-12 -2 -12 3 0 6 9 11 20 11 21 0 48 23 75 64 21 32 30 34 14 4z m-2721 -68
c29 -27 30 -55 3 -40 -11 5 -36 10 -56 10 -46 0 -62 -29 -46 -86 l10 -39 -29
35 c-17 19 -30 29 -30 22 0 -7 -4 -11 -10 -7 -10 6 3 52 14 47 4 -2 16 8 26
21 16 21 73 56 91 57 3 0 15 -9 27 -20z m3617 10 c3 -5 1 -10 -4 -10 -6 0 -11
5 -11 10 0 6 2 10 4 10 3 0 8 -4 11 -10z m-1495 -15 c-7 -9 -15 -13 -19 -10
-3 3 1 10 9 15 21 14 24 12 10 -5z m90 -30 c7 -8 10 -21 7 -29 -3 -8 1 -13 11
-12 11 1 18 -8 19 -24 3 -24 3 -25 -7 -3 -5 14 -15 20 -24 17 -8 -3 -17 -1
-20 5 -4 6 -14 7 -23 4 -11 -4 -14 -3 -9 5 4 7 14 12 22 12 8 0 14 5 14 10 0
6 -11 10 -25 10 -14 0 -25 5 -25 10 0 16 46 12 60 -5z m237 -17 c-3 -8 -6 -5
-6 6 -1 11 2 17 5 13 3 -3 4 -12 1 -19z m-1527 2 c0 -5 -5 -10 -11 -10 -5 0
-7 5 -4 10 3 6 8 10 11 10 2 0 4 -4 4 -10z m1050 0 c12 -8 11 -10 -7 -10 -12
0 -25 5 -28 10 -8 13 15 13 35 0z m135 -8 c-3 -3 -11 0 -18 7 -9 10 -8 11 6 5
10 -3 15 -9 12 -12z m-2135 4 c0 -3 -4 -8 -10 -11 -5 -3 -10 -1 -10 4 0 6 5
11 10 11 6 0 10 -2 10 -4z m1933 -3 c-7 -2 -21 -2 -30 0 -10 3 -4 5 12 5 17 0
24 -2 18 -5z m364 -15 c-3 -8 -6 -5 -6 6 -1 11 2 17 5 13 3 -3 4 -12 1 -19z
m-437 2 c-14 -4 -38 -8 -55 -8 l-30 0 30 8 c17 4 41 8 55 8 l25 0 -25 -8z
m3023 4 c4 -4 -5 -20 -19 -37 -19 -23 -24 -38 -20 -59 4 -21 2 -28 -10 -28 -8
0 -13 4 -10 8 3 5 1 22 -4 38 l-8 29 -2 -30 -1 -30 -14 34 c-8 18 -15 34 -15
36 0 1 14 1 30 -1 26 -3 30 0 30 21 0 18 5 25 18 25 10 0 22 -3 25 -6z m-63
-14 c0 -5 -2 -10 -4 -10 -3 0 -8 5 -11 10 -3 6 -1 10 4 10 6 0 11 -4 11 -10z
m-2513 -32 c-3 -8 -6 -5 -6 6 -1 11 2 17 5 13 3 -3 4 -12 1 -19z m3116 7 c-3
-9 -8 -14 -10 -11 -3 3 -2 9 2 15 9 16 15 13 8 -4z m-5403 -78 c-10 -9 -12 -7
-7 11 4 18 1 22 -21 23 -24 2 -24 2 -4 6 12 2 22 10 23 16 0 7 5 -1 11 -16 8
-21 7 -32 -2 -40z m-716 27 c29 -11 16 -19 -34 -20 -28 -1 -50 2 -50 7 0 14
57 23 84 13z m1502 -10 c-3 -8 -2 -12 4 -9 18 11 10 -10 -10 -28 -23 -19 -30
-21 -30 -8 0 21 20 61 31 61 6 0 8 -7 5 -16z m3044 -4 c0 -5 -9 -6 -20 -3 -11
3 -20 9 -20 13 0 5 9 6 20 3 11 -3 20 -9 20 -13z m-3799 -13 c-10 -9 -11 -8
-5 6 3 10 9 15 12 12 3 -3 0 -11 -7 -18z m667 7 c39 -11 24 -22 -33 -26 -30
-1 -55 -2 -55 -1 0 3 54 32 60 32 3 1 15 -2 28 -5z m152 -14 c-19 -13 -30 -13
-30 0 0 6 10 10 23 10 18 0 19 -2 7 -10z m2805 -13 c28 -8 48 -18 47 -22 -2
-4 2 -12 10 -16 10 -7 10 -9 -2 -9 -24 0 -110 33 -110 43 0 4 -9 5 -20 2 -15
-5 -20 -2 -20 10 0 19 1 19 95 -8z m129 14 c4 -5 -3 -7 -14 -4 -23 6 -26 13
-6 13 8 0 17 -4 20 -9z m1577 -24 c-10 -9 -11 -8 -5 6 3 10 9 15 12 12 3 -3 0
-11 -7 -18z m-6038 6 c-20 -7 -15 -23 6 -23 11 0 23 -4 26 -10 8 -12 4 -12
-70 1 -33 6 -71 10 -84 10 -50 -2 -7 14 52 20 84 8 84 8 70 2z m4855 -13 c12
-19 11 -20 -8 -8 -20 13 -27 28 -12 28 4 0 13 -9 20 -20z m-3161 -6 c-3 -3
-12 -4 -19 -1 -8 3 -5 6 6 6 11 1 17 -2 13 -5z m3359 -13 c-3 -5 -15 -11 -26
-14 -17 -4 -19 -3 -9 9 12 15 44 20 35 5z m-616 -11 c0 -5 -8 -10 -17 -10 -15
0 -16 2 -3 10 19 12 20 12 20 0z m989 -6 c10 -9 -45 -3 -59 6 -11 7 -5 8 20 4
19 -4 37 -8 39 -10z m214 9 c-7 -2 -19 -2 -25 0 -7 3 -2 5 12 5 14 0 19 -2 13
-5z m367 -41 c-12 -22 -27 -43 -35 -46 -9 -3 -6 7 8 32 41 70 62 81 27 14z
m-5625 18 c3 -5 -4 -6 -15 -3 -11 3 -22 9 -25 13 -3 5 4 6 15 3 11 -3 22 -9
25 -13z m5372 14 c-3 -3 -12 -4 -19 -1 -8 3 -5 6 6 6 11 1 17 -2 13 -5z
m-1217 -24 c9 -5 -3 -6 -30 -3 -25 3 -49 10 -55 15 -12 12 61 1 85 -12z
m-3753 4 c-4 -4 -21 -8 -38 -9 -22 -2 -27 0 -18 6 16 10 66 12 56 3z m4570 0
c-3 -3 -12 -4 -19 -1 -8 3 -5 6 6 6 11 1 17 -2 13 -5z m-4920 -10 c-3 -3 -12
-4 -19 -1 -8 3 -5 6 6 6 11 1 17 -2 13 -5z m3244 -83 c6 9 8 -1 8 -31 -1 -40
-2 -41 -8 -15 -6 27 -9 22 -21 -38 -11 -54 -20 -74 -44 -93 -59 -51 -262 -137
-241 -104 3 6 13 10 21 10 8 0 14 7 14 15 0 8 -4 15 -10 15 -5 0 -10 -4 -10
-9 0 -5 -9 -11 -21 -14 -18 -5 -18 -3 -7 11 7 9 15 19 18 22 3 3 12 18 20 33
13 27 78 67 107 67 8 0 11 5 8 10 -10 16 5 12 23 -6 14 -15 17 -14 33 7 45 61
48 64 49 49 0 -21 -52 -80 -72 -80 -8 0 -21 -7 -28 -15 -14 -17 -45 -21 -35
-5 3 6 1 10 -5 10 -7 0 -10 -7 -7 -15 4 -9 -6 -24 -25 -38 -17 -14 -28 -29
-24 -36 11 -17 26 -13 26 7 0 17 65 60 83 54 6 -2 21 7 35 20 20 18 24 19 19
6 -10 -29 0 -20 19 15 9 17 23 45 31 60 8 16 18 47 21 70 3 23 8 34 10 23 3
-15 6 -16 13 -5z m2275 -16 c0 -21 -3 -30 -8 -22 -11 17 -29 -12 -22 -36 7
-21 -21 -68 -37 -64 -7 1 -12 -7 -14 -19 -1 -20 -41 -84 -51 -84 -3 0 4 16 16
36 12 19 20 37 18 40 -6 5 -68 -81 -68 -94 0 -14 -111 -127 -140 -142 -22 -11
-20 -7 9 24 37 39 29 46 -22 20 -26 -13 -20 -4 33 50 48 49 70 65 85 61 11 -3
14 -2 8 1 -7 3 -13 10 -13 15 0 6 6 9 13 8 23 -3 37 1 37 11 0 5 -8 7 -17 3
-16 -6 -16 -4 1 15 10 12 22 19 27 16 4 -2 13 6 20 18 7 13 15 25 19 28 4 3
19 26 34 53 15 26 31 47 35 47 4 0 13 11 19 25 15 33 18 32 18 -10z m-2329 -7
c-3 -8 -6 -5 -6 6 -1 11 2 17 5 13 3 -3 4 -12 1 -19z m-3262 -4 c11 -8 20 -25
20 -37 0 -13 9 -26 23 -32 12 -5 22 -13 22 -17 0 -5 5 -8 11 -8 5 0 7 5 4 10
-3 6 -3 10 1 10 13 0 74 -74 74 -90 1 -22 49 -55 62 -42 7 7 21 2 45 -14 20
-13 42 -24 49 -24 7 0 11 -6 8 -13 -2 -7 9 -17 28 -25 17 -6 29 -14 26 -17 -8
-9 -102 37 -116 57 -7 10 -19 18 -25 18 -8 -1 -7 -5 3 -13 8 -7 24 -23 35 -36
l20 -23 -27 13 c-15 6 -25 16 -22 20 3 5 0 9 -6 9 -45 0 -240 188 -240 231 0
6 -8 18 -17 25 -10 7 -13 13 -8 13 6 0 19 -6 30 -15z m2190 -113 c8 -16 27
-38 42 -50 15 -11 22 -21 15 -21 -39 -1 -103 117 -101 184 0 12 7 -3 15 -32 7
-29 20 -65 29 -81z m575 89 c0 -5 -4 -10 -9 -10 -6 0 -13 5 -16 10 -3 6 1 10
9 10 9 0 16 -4 16 -10z m-2710 -20 c0 -5 -2 -10 -4 -10 -3 0 -8 5 -11 10 -3 6
-1 10 4 10 6 0 11 -4 11 -10z m2213 -67 c-5 -12 -1 -14 14 -9 13 4 26 -1 38
-14 10 -11 28 -20 40 -20 11 0 26 -5 33 -12 8 -8 12 -8 12 -1 0 6 -13 16 -30
22 -32 11 -39 21 -15 21 8 0 30 -15 48 -32 18 -18 29 -30 24 -26 -5 3 -16 4
-23 1 -8 -3 -22 0 -32 7 -9 7 4 -8 31 -33 52 -50 59 -64 25 -47 -21 11 -21 10
1 -8 14 -11 30 -18 35 -16 6 2 22 -7 36 -21 14 -15 36 -37 49 -51 13 -13 20
-24 14 -24 -5 0 -27 18 -48 40 -38 39 -71 57 -44 23 13 -15 12 -15 -7 -5 -11
6 -27 18 -34 27 -7 9 -27 23 -43 32 -47 24 -127 103 -149 148 -19 36 -19 38
-3 25 17 -14 18 -13 12 5 -7 19 -6 19 7 2 8 -11 12 -26 9 -34z m-251 -60 c-5
-74 -8 -81 -22 -46 -12 34 -30 36 -30 3 0 -26 38 -60 69 -61 25 -1 25 -1 -4
-9 -53 -14 -228 -79 -285 -106 -44 -21 -186 -89 -282 -136 -11 -5 -18 -4 -18
2 0 5 4 10 10 10 5 0 14 9 20 21 11 19 10 20 -10 9 -36 -19 -33 -5 5 24 19 15
35 23 35 19 0 -4 5 -1 10 7 6 10 10 11 10 3 0 -7 5 -13 11 -13 6 0 8 9 4 20
-4 13 -2 20 7 20 10 0 10 2 -1 9 -11 7 -9 10 8 16 11 3 21 10 21 15 0 7 60 40
74 40 3 0 6 -7 6 -16 0 -8 5 -12 10 -9 6 3 10 15 10 25 0 15 6 19 23 17 16 -1
21 3 19 16 -2 11 4 17 17 17 11 0 23 4 26 10 3 5 15 15 27 21 13 7 18 7 14 1
-3 -6 -2 -13 4 -17 5 -3 10 -2 10 4 0 5 16 15 35 21 19 6 37 20 40 31 4 10 12
19 19 19 8 0 19 7 27 16 9 11 22 14 41 10 23 -5 28 -2 28 14 0 11 3 20 8 20 4
0 6 -21 4 -47z m540 20 c24 -23 28 -24 28 -9 0 16 4 15 27 -8 14 -15 33 -24
40 -22 8 3 11 1 8 -4 -4 -6 8 -13 25 -16 34 -7 28 -24 -9 -27 -11 -1 -21 -8
-21 -17 0 -13 -1 -13 -10 0 -6 9 -10 10 -10 3 0 -18 -39 -11 -46 9 -3 9 -13
20 -23 23 -19 6 -63 80 -53 89 9 10 15 7 44 -21z m2737 6 c-19 -36 -97 -109
-116 -109 -13 0 -8 6 13 19 17 11 49 40 70 65 42 51 51 57 33 25z m-5090 -44
c0 -5 -4 -3 -9 5 -5 8 -9 22 -9 30 0 16 17 -16 18 -35z m2732 24 c9 -18 6 -26
-21 -54 -18 -19 -54 -43 -81 -55 -52 -22 -189 -37 -189 -20 0 6 15 10 33 11
17 0 26 3 20 6 -7 2 -13 9 -13 14 0 5 16 1 36 -8 28 -14 39 -15 54 -5 11 7 29
12 39 12 11 0 23 5 26 10 3 6 1 10 -5 10 -7 0 -7 6 1 22 11 20 13 20 24 5 7
-9 16 -17 20 -17 5 0 0 9 -10 20 -14 16 -16 23 -7 32 9 9 12 9 12 -2 1 -8 8
-3 16 13 18 32 29 34 45 6z m-851 -9 c0 -5 -4 -10 -10 -10 -5 0 -10 5 -10 10
0 6 5 10 10 10 6 0 10 -4 10 -10z m875 -40 c-10 -11 -22 -20 -26 -20 -4 0 2
11 14 24 12 14 24 23 26 20 2 -2 -4 -13 -14 -24z m495 20 c0 -5 -4 -10 -10
-10 -5 0 -10 5 -10 10 0 6 5 10 10 10 6 0 10 -4 10 -10z m-1613 -27 c-13 -13
-21 -14 -39 -5 -23 11 -23 11 4 11 15 1 30 6 33 12 4 6 10 8 13 4 3 -3 -2 -13
-11 -22z m1661 8 c3 -10 0 -12 -12 -8 -11 4 -16 1 -16 -9 0 -12 7 -15 29 -12
20 3 33 -1 42 -14 8 -10 19 -18 26 -18 6 0 17 -8 23 -17 8 -15 10 -13 8 12 -2
23 2 30 17 33 16 3 18 1 8 -9 -19 -19 -16 -28 8 -22 11 3 30 1 42 -5 12 -6 39
-18 60 -27 36 -17 47 -37 27 -50 -13 -8 -3 -25 16 -25 8 0 14 9 14 20 0 21 15
27 25 9 4 -6 13 -8 21 -5 7 3 16 0 20 -6 4 -6 3 -8 -4 -4 -6 3 -13 2 -16 -3
-7 -11 22 -24 35 -15 5 3 25 -11 45 -30 25 -24 32 -36 21 -36 -9 0 -23 10 -31
22 -19 26 -35 15 -18 -12 9 -14 9 -20 -1 -23 -7 -3 0 -6 16 -6 15 -1 27 -5 27
-11 0 -18 -20 -11 -133 49 -130 69 -221 105 -309 122 -72 14 -115 33 -55 25
40 -5 40 -5 31 18 -5 13 -10 14 -20 5 -10 -8 -17 -7 -29 4 -18 19 -19 27 -2
27 8 0 22 9 33 20 21 22 45 22 52 1z m-1388 -12 c0 -4 -7 -6 -15 -3 -8 4 -15
10 -15 15 0 4 7 6 15 3 8 -4 15 -10 15 -15z m355 11 c3 -6 -1 -7 -9 -4 -18 7
-21 14 -7 14 6 0 13 -4 16 -10z m1112 -27 c-8 -9 -20 -12 -26 -9 -19 12 -12
21 15 23 24 1 25 -1 11 -14z m-682 -32 c-3 -6 -14 -11 -23 -11 -13 0 -13 2 4
14 21 15 30 14 19 -3z m-280 -11 c3 -5 2 -10 -4 -10 -5 0 -13 5 -16 10 -3 6
-2 10 4 10 5 0 13 -4 16 -10z m344 7 c-2 -1 -13 -9 -24 -17 -19 -14 -19 -14
-6 3 7 9 18 17 24 17 6 0 8 -1 6 -3z m-2711 -27 c12 -11 25 -20 29 -20 15 -1
128 -59 116 -59 -25 -2 -193 78 -193 91 0 15 26 8 48 -12z m96 -11 c20 -12 36
-23 36 -25 0 -9 -17 -3 -55 21 -49 30 -31 34 19 4z m2511 11 c-3 -5 -14 -10
-23 -9 -14 0 -13 2 3 9 27 11 27 11 20 0z m-1275 -20 c0 -5 -5 -10 -11 -10 -5
0 -7 5 -4 10 3 6 8 10 11 10 2 0 4 -4 4 -10z m-1149 -17 c13 -17 13 -17 -6 -3
-11 8 -22 16 -24 17 -2 2 0 3 6 3 6 0 17 -8 24 -17z m2134 7 c3 -5 2 -10 -4
-10 -5 0 -13 5 -16 10 -3 6 -2 10 4 10 5 0 13 -4 16 -10z m-1305 -20 c0 -6 -4
-9 -9 -5 -5 3 -12 1 -16 -5 -9 -14 -22 -13 -28 3 -3 8 5 14 24 15 16 1 29 -3
29 -8z m263 -30 c-3 -11 -9 -20 -13 -20 -5 0 -6 9 -3 20 3 11 9 20 13 20 5 0
6 -9 3 -20z m-1068 0 c19 -8 19 -9 -2 -9 -12 -1 -25 4 -28 9 -7 12 2 12 30 0z
m1570 0 c-9 -15 15 -42 32 -36 16 7 17 -6 1 -23 -11 -11 -9 -11 9 -2 12 6 28
11 35 11 21 -1 -41 -31 -72 -35 -95 -12 -220 -56 -345 -120 -44 -23 -87 -40
-95 -37 -13 3 -13 2 -1 -6 21 -15 -23 -36 -47 -23 -16 10 -16 10 1 11 11 0 17
6 15 18 -2 11 4 18 20 20 12 2 22 7 22 12 0 5 6 7 14 4 8 -3 20 4 28 15 8 12
17 19 20 16 3 -3 11 1 17 9 7 8 19 12 27 9 9 -3 14 2 14 16 0 16 6 20 23 18
12 -1 25 -6 29 -12 4 -6 8 -2 8 8 0 9 1 17 3 17 1 0 17 4 35 10 28 7 33 7 28
-5 -3 -8 -1 -15 4 -15 16 0 21 19 10 40 -9 16 -8 20 5 20 8 0 15 5 15 10 0 6
7 10 15 10 7 0 18 8 24 17 6 12 22 18 50 18 23 0 41 3 41 7 0 5 5 8 11 8 5 0
7 -5 4 -10z m-1830 -28 c-3 -3 -11 0 -18 7 -9 10 -8 11 6 5 10 -3 15 -9 12
-12z m5188 -21 c49 -1 63 -14 25 -25 -37 -9 -98 -7 -183 9 -44 8 -120 15 -170
15 -49 1 -85 4 -79 6 36 15 152 18 249 7 61 -6 131 -12 158 -12z m-4760 -18
c43 -14 76 -27 74 -29 -2 -2 -46 5 -98 16 -145 29 -335 28 -392 -2 -18 -9
-182 0 -172 10 3 3 62 13 133 23 176 24 348 18 455 -18z m2886 11 c17 -8 29
-19 27 -23 -3 -4 7 -8 20 -9 15 -1 22 2 19 8 -10 16 11 12 25 -5 7 -8 21 -15
31 -15 10 0 21 -4 24 -10 3 -5 15 -10 26 -10 12 0 23 -10 29 -25 5 -14 12 -25
15 -25 4 0 3 5 0 10 -3 6 -2 10 4 10 5 0 13 -4 16 -10 3 -5 15 -10 26 -10 11
0 18 -4 14 -9 -3 -5 0 -13 6 -17 6 -3 15 -1 19 6 5 9 9 9 14 1 4 -6 2 -11 -4
-11 -6 0 -8 -4 -5 -10 3 -5 4 -10 0 -10 -6 0 -47 22 -55 30 -3 3 -25 13 -50
22 -25 9 -81 30 -125 47 -44 17 -104 35 -134 41 -69 13 -82 24 -16 14 46 -6
49 -6 36 9 -17 21 -3 22 38 1z m481 -39 c7 -8 9 -15 6 -15 -4 0 -14 7 -22 15
-9 8 -11 15 -6 15 5 0 15 -7 22 -15z m-3180 -25 c11 -7 5 -8 -20 -4 -43 8 -51
14 -19 14 13 0 31 -5 39 -10z m883 -15 c-22 -30 -49 -35 -33 -6 9 18 24 28 43
30 4 1 0 -10 -10 -24z m-278 5 c-3 -5 -10 -10 -16 -10 -5 0 -9 5 -9 10 0 6 7
10 16 10 8 0 12 -4 9 -10z m-458 -61 c45 -25 92 -49 105 -52 29 -8 98 -64 98
-80 -1 -7 -9 -2 -19 10 -10 12 -21 20 -24 17 -3 -3 -10 4 -17 15 -6 12 -16 21
-23 19 -12 -2 -186 89 -222 117 l-20 15 20 -7 c11 -4 57 -28 102 -54z m268 51
c-3 -5 -11 -10 -16 -10 -6 0 -7 5 -4 10 3 6 11 10 16 10 6 0 7 -4 4 -10z
m1595 -4 c0 -2 -8 -10 -17 -17 -16 -13 -17 -12 -4 4 13 16 21 21 21 13z m1170
-6 c0 -5 -4 -10 -10 -10 -5 0 -10 5 -10 10 0 6 5 10 10 10 6 0 10 -4 10 -10z
m48 -17 c-5 -23 -23 -20 -26 4 -3 18 0 21 13 17 9 -4 15 -13 13 -21z m-2600 1
c14 -10 22 -26 22 -44 0 -43 -17 -45 -30 -5 -15 46 -52 57 -80 25 -11 -13 -23
-20 -27 -16 -5 4 0 12 9 17 10 5 15 16 12 24 -8 21 64 20 94 -1z m2713 2 c12
0 9 -8 -13 -29 -16 -16 -32 -26 -36 -23 -3 4 0 11 8 16 12 7 12 12 2 22 -18
18 -15 31 6 23 9 -5 24 -8 33 -9z m-61 -45 c0 -6 -4 -13 -10 -16 -5 -3 -10 1
-10 9 0 9 5 16 10 16 6 0 10 -4 10 -9z m96 -26 c14 -13 29 -24 33 -23 18 2 22
-4 11 -17 -9 -11 -16 -12 -31 -2 -10 6 -19 17 -19 24 0 12 -13 17 -32 14 -4 0
-5 6 -2 14 8 19 8 19 40 -10z m-4664 -47 c-37 -46 -92 -201 -92 -260 0 -10 -4
-18 -9 -18 -4 0 -9 23 -10 51 0 42 6 65 38 125 41 76 73 125 80 118 2 -2 -1
-9 -7 -16z m4531 1 c4 -15 2 -19 -9 -15 -8 3 -17 -1 -20 -9 -3 -8 -16 -17 -27
-21 -22 -7 -22 -7 -2 -15 20 -7 20 -8 -1 -8 -11 -1 -29 6 -40 15 -19 15 -18
15 3 9 15 -4 29 2 47 22 14 15 26 31 26 35 0 17 18 7 23 -13z m127 -10 c0 -5
-4 -9 -10 -9 -5 0 -10 7 -10 16 0 8 5 12 10 9 6 -3 10 -10 10 -16z m105 1
c-50 -25 -67 -25 -36 0 13 11 35 20 49 20 24 0 23 -2 -13 -20z m-2998 -5 c0
-11 -4 -12 -14 -4 -7 6 -13 13 -13 15 0 2 6 4 13 4 8 0 14 -7 14 -15z m53 -16
c0 -13 -7 -19 -22 -18 -13 0 -17 3 -10 6 6 2 12 14 12 24 0 11 5 17 10 14 6
-3 10 -15 10 -26z m60 -9 c0 -4 -7 -10 -15 -13 -16 -7 -29 8 -20 23 6 10 35 2
35 -10z m4580 -11 c0 -6 -4 -7 -10 -4 -5 3 -10 11 -10 16 0 6 5 7 10 4 6 -3
10 -11 10 -16z m-1646 -23 c3 -26 3 -26 -14 -9 -12 13 -15 22 -7 31 13 16 18
11 21 -22z m-3242 -40 c-5 -42 -6 -42 -34 -16 -18 17 -20 23 -10 45 10 21 15
24 30 16 14 -7 17 -18 14 -45z m128 11 c0 -5 -7 -4 -15 3 -8 7 -15 20 -15 29
1 13 3 13 15 -3 8 -11 15 -24 15 -29z m2993 3 c-3 -12 -8 -19 -11 -16 -5 6 5
36 12 36 2 0 2 -9 -1 -20z m1807 -75 c-13 -16 0 -67 16 -61 19 7 18 -12 -1
-30 -17 -17 -21 -59 -5 -49 6 3 10 12 10 20 0 8 4 16 9 19 9 6 8 -10 -5 -88
-5 -30 -4 -37 6 -31 10 6 12 4 7 -9 -4 -10 -7 -40 -7 -67 0 -36 -4 -49 -15
-49 -9 0 -12 6 -9 18 5 14 4 15 -5 2 -13 -18 -15 -43 -3 -36 14 9 -17 -197
-35 -233 -19 -37 -43 -67 -107 -135 -44 -46 -38 -33 16 35 28 35 36 53 33 76
-2 16 1 36 6 44 5 8 9 10 9 5 0 -5 7 -3 15 4 8 7 12 17 9 22 -4 6 -9 5 -14 -2
-5 -8 -7 -3 -7 13 1 14 5 23 8 21 3 -2 12 9 18 24 12 26 12 26 -7 8 -20 -17
-20 -17 -24 6 -3 25 59 219 74 229 6 4 7 29 3 60 -3 30 -10 91 -15 136 -5 46
-12 87 -15 93 -3 6 -3 20 1 32 6 20 9 17 24 -22 10 -25 14 -49 10 -55z m-4900
11 c0 -7 -8 -20 -17 -27 -15 -12 -16 -12 -10 4 4 10 7 23 7 28 0 5 5 9 10 9 6
0 10 -6 10 -14z m4917 -38 c-3 -8 -6 -5 -6 6 -1 11 2 17 5 13 3 -3 4 -12 1
-19z m-1662 2 c3 -5 -1 -10 -9 -10 -9 0 -16 5 -16 10 0 6 4 10 9 10 6 0 13 -4
16 -10z m-3451 -33 c-2 -7 -14 -19 -27 -26 -21 -13 -21 -12 2 13 27 29 33 32
25 13z m3565 -16 c7 -5 9 -11 5 -14 -10 -5 -54 9 -54 18 0 8 34 6 49 -4z
m-3504 -11 c-3 -5 -11 -10 -16 -10 -6 0 -7 5 -4 10 3 6 11 10 16 10 6 0 7 -4
4 -10z m-1586 -42 c-4 -70 0 -105 10 -90 6 10 10 8 14 -9 8 -29 2 -35 -17 -20
-12 10 -15 5 -21 -28 -7 -42 0 -65 16 -56 5 4 9 -2 10 -12 0 -16 1 -16 9 2 15
34 12 49 -5 35 -13 -10 -15 -9 -15 8 0 12 4 23 9 26 16 10 34 -24 36 -72 1
-28 7 -46 13 -45 7 2 14 -8 18 -22 3 -14 11 -25 18 -25 6 0 4 -5 -4 -10 -13
-8 -12 -10 3 -10 19 0 24 -20 5 -21 -7 0 -1 -5 14 -10 17 -7 25 -15 21 -25 -3
-7 2 -17 11 -20 11 -4 14 -13 11 -24 -3 -10 -1 -21 5 -25 5 -3 10 -13 10 -21
0 -8 -4 -13 -9 -10 -5 3 -11 -4 -14 -15 -3 -12 -10 -18 -16 -15 -6 4 -7 15 -2
29 8 22 -5 67 -20 67 -13 0 -20 -18 -9 -25 15 -9 12 -38 -6 -61 -15 -18 -15
-18 -10 8 4 15 2 30 -4 33 -5 3 -10 -2 -10 -12 0 -10 -4 -24 -9 -31 -7 -11 -9
-10 -14 3 -4 9 -3 13 3 10 20 -12 9 36 -19 89 -46 83 -64 189 -56 320 3 60 8
113 11 118 11 17 15 6 13 -34z m5146 12 c-8 -13 -75 -13 -95 0 -11 7 2 10 43
10 36 0 56 -4 52 -10z m-4399 -37 c-11 -11 -19 6 -11 24 8 17 8 17 12 0 3 -10
2 -21 -1 -24z m-729 5 c-3 -8 -6 -5 -6 6 -1 11 2 17 5 13 3 -3 4 -12 1 -19z
m683 -46 c0 -7 -4 -10 -10 -7 -5 3 -10 16 -10 28 0 18 2 19 10 7 5 -8 10 -21
10 -28z m5191 -109 c-8 -15 -10 -15 -11 -2 0 17 10 32 18 25 2 -3 -1 -13 -7
-23z m746 -145 c-3 -7 -5 -2 -5 12 0 14 2 19 5 13 2 -7 2 -19 0 -25z m-5567
-63 c-7 -9 -15 -13 -17 -11 -7 7 7 26 19 26 6 0 6 -6 -2 -15z m2918 -5 c53 -6
160 -17 237 -25 215 -22 221 -23 364 -13 73 5 135 7 138 5 2 -3 -2 -11 -9 -18
-26 -27 -56 -85 -72 -138 -12 -41 -16 -99 -16 -230 0 -105 -6 -210 -14 -261
-22 -131 -26 -215 -24 -470 4 -376 2 -420 -21 -486 -24 -69 -83 -128 -146
-146 -22 -6 -46 -18 -52 -27 -7 -8 -13 -11 -13 -7 0 4 13 24 30 44 78 98 95
240 45 390 -9 28 -10 40 -3 36 13 -8 13 -9 -32 101 -37 88 -111 205 -172 271
-54 59 -212 171 -303 217 -200 100 -477 123 -685 58 -90 -28 -220 -105 -283
-166 -140 -135 -357 -460 -412 -616 -45 -126 -90 -413 -80 -508 8 -71 27 -151
35 -146 3 2 5 33 4 69 -1 37 2 69 7 72 5 3 9 -3 9 -13 0 -11 5 -24 11 -30 7
-7 12 -53 12 -118 0 -76 4 -105 12 -101 6 2 12 -1 12 -7 1 -19 7 -42 14 -47 3
-3 29 -63 58 -135 29 -71 61 -142 71 -157 11 -15 20 -31 20 -35 1 -17 133
-159 188 -200 67 -52 193 -114 277 -139 64 -19 277 -26 345 -12 24 6 30 5 20
-2 -22 -14 -10 -12 61 9 35 11 80 22 99 26 66 13 136 54 203 120 52 51 67 71
67 94 0 17 -6 31 -16 35 -31 12 -44 6 -44 -19 0 -14 -8 -29 -19 -35 -25 -13
-41 -13 -41 0 0 6 6 10 14 10 23 0 26 13 10 40 -11 20 -14 21 -12 6 3 -17 -4
-20 -46 -23 -27 -2 -55 2 -62 8 -8 6 -20 9 -29 6 -19 -8 -29 10 -27 45 1 15
-2 28 -8 28 -15 0 -12 12 10 40 l19 25 -5 -25 c-5 -21 -4 -22 6 -7 8 13 24 17
65 17 30 0 57 4 60 10 3 6 17 10 31 10 13 0 24 4 24 8 0 5 -24 7 -54 4 -30 -2
-70 1 -90 8 -38 12 -76 52 -76 79 1 13 2 13 11 -2 6 -11 30 -27 53 -38 22 -10
37 -19 31 -20 -5 -1 6 -5 25 -8 40 -8 76 4 85 27 5 13 3 13 -13 -1 -10 -9 -27
-17 -38 -17 -15 0 -12 4 11 18 38 24 47 35 80 102 15 30 33 68 42 83 15 29 14
162 -2 201 -6 14 -5 17 3 12 15 -9 15 -3 -2 61 -17 63 -38 113 -48 113 -4 0
-13 10 -19 23 -11 20 -11 21 4 9 9 -8 43 -16 76 -19 61 -6 85 -24 60 -47 -9
-8 -10 -8 -5 1 3 6 2 14 -3 17 -18 11 -22 -33 -10 -96 15 -75 16 -97 19 -299
1 -135 4 -161 21 -189 13 -20 25 -30 34 -26 8 3 15 1 15 -4 0 -6 5 -10 11 -10
5 0 8 4 5 9 -3 5 16 11 42 15 83 11 220 137 206 191 -5 20 -3 23 14 18 30 -7
86 23 121 68 53 65 232 139 336 139 29 0 88 -51 67 -58 -7 -2 -10 -13 -7 -25
6 -21 3 -22 -72 -22 -61 0 -87 -5 -121 -23 -24 -12 -47 -20 -51 -18 -4 3 -20
-4 -37 -15 -27 -19 -28 -20 -4 -14 19 5 15 0 -16 -22 -23 -15 -57 -44 -76 -63
-47 -48 -167 -198 -191 -237 -21 -37 -31 -43 -22 -13 10 32 -12 23 -23 -9 -13
-37 -103 -163 -156 -219 -218 -230 -749 -379 -1131 -317 -360 58 -625 281
-822 691 -111 231 -145 356 -145 529 1 269 79 562 226 850 28 55 50 106 49
112 0 7 3 10 8 8 4 -3 13 5 20 17 29 58 97 134 188 213 78 67 115 107 165 183
65 98 127 166 201 218 98 70 165 128 196 172 18 26 46 59 62 73 l29 26 -34 24
c-22 16 -47 24 -75 24 -22 0 -36 3 -30 7 26 17 75 7 115 -22 l41 -30 65 35
c59 31 161 58 256 68 79 8 357 6 448 -3z m-3953 -60 c5 -17 4 -22 -3 -15 -5 6
-13 21 -17 35 -5 17 -4 22 3 15 5 -5 13 -21 17 -35z m614 -109 c7 -11 16 -21
22 -21 6 0 7 -5 4 -11 -5 -6 -12 -4 -21 8 -16 21 -15 23 -18 -48 -1 -30 -6
-61 -11 -69 -5 -8 -4 -11 3 -6 17 10 23 -10 12 -40 -13 -33 -8 -40 14 -19 15
15 16 14 16 -12 0 -31 -15 -53 -34 -49 -6 2 -8 1 -3 -1 11 -7 8 -113 -3 -113
-5 0 -10 -7 -10 -15 0 -8 5 -15 12 -15 9 0 9 -3 1 -11 -7 -7 -9 -25 -6 -40 3
-18 1 -29 -6 -29 -7 0 -11 25 -11 71 0 44 4 68 10 64 6 -3 10 -1 10 4 0 6 -5
11 -11 11 -7 0 -9 69 -8 213 2 217 8 277 20 196 4 -26 12 -56 18 -68z m4746
90 c3 -5 1 -12 -5 -16 -5 -3 -10 1 -10 9 0 18 6 21 15 7z m-4604 -31 c-25 -21
-41 -26 -41 -12 0 9 38 30 55 31 6 0 -1 -9 -14 -19z m5709 16 c0 -2 -7 -7 -16
-10 -8 -3 -12 -2 -9 4 6 10 25 14 25 6z m-1047 -31 c-3 -9 -8 -14 -10 -11 -3
3 -2 9 2 15 9 16 15 13 8 -4z m-4645 -9 c-10 -7 -15 -15 -12 -18 2 -3 -2 -8
-11 -11 -8 -4 -15 -3 -15 0 0 11 33 43 44 43 6 0 3 -7 -6 -14z m42 -2 c0 -8
-4 -12 -10 -9 -5 3 -10 10 -10 16 0 5 5 9 10 9 6 0 10 -7 10 -16z m-770 -14
c0 -5 -2 -10 -4 -10 -3 0 -8 5 -11 10 -3 6 -1 10 4 10 6 0 11 -4 11 -10z m780
-26 c0 -8 -4 -12 -10 -9 -5 3 -10 1 -10 -4 0 -6 -5 -11 -12 -11 -6 0 -8 3 -5
7 4 3 2 12 -4 20 -9 10 -6 13 15 13 17 0 26 -5 26 -16z m-70 -19 c-7 -8 -10
-21 -7 -28 7 -18 -13 -42 -40 -49 -18 -5 -23 -2 -23 14 0 10 5 28 11 39 9 17
13 18 27 7 12 -10 14 -10 8 0 -9 16 1 32 21 32 13 0 13 -3 3 -15z m-650 -36
c0 -6 -4 -7 -10 -4 -5 3 -10 11 -10 16 0 6 5 7 10 4 6 -3 10 -11 10 -16z
m6370 7 c0 -2 -8 -10 -17 -17 -16 -13 -17 -12 -4 4 13 16 21 21 21 13z m-5819
-29 c-10 -9 -11 -8 -5 6 3 10 9 15 12 12 3 -3 0 -11 -7 -18z m-24 -54 c-3 -10
-5 -4 -5 12 0 17 2 24 5 18 2 -7 2 -21 0 -30z m4773 27 c0 -5 -2 -10 -4 -10
-3 0 -8 5 -11 10 -3 6 -1 10 4 10 6 0 11 -4 11 -10z m345 -10 c3 -5 1 -10 -4
-10 -6 0 -11 5 -11 10 0 6 2 10 4 10 3 0 8 -4 11 -10z m-4942 -51 c-10 -16
-21 -29 -26 -29 -4 0 -6 -4 -2 -9 7 -12 -25 -81 -38 -81 -7 0 -4 19 11 59 4
10 1 12 -8 6 -9 -5 -11 -4 -6 4 4 6 12 9 17 6 5 -4 9 -2 9 4 0 16 44 79 53 74
4 -2 0 -18 -10 -34z m-33 16 c0 -2 -9 -3 -19 -2 -11 0 -18 5 -15 9 4 6 34 0
34 -7z m4690 3 c-19 -5 -41 -14 -47 -20 -7 -6 -13 -7 -13 -3 0 16 36 34 65 34
l30 -1 -35 -10z m-4421 -142 c-11 -20 -23 -36 -25 -36 -10 0 -2 28 18 60 28
46 35 23 7 -24z m-47 1 c-13 -30 -42 -47 -42 -25 0 4 5 8 10 8 6 0 15 11 20
25 5 14 14 25 19 25 4 0 2 -15 -7 -33z m-331 -29 c-8 -20 -9 -18 -8 15 1 24 4
32 9 23 4 -8 4 -25 -1 -38z m235 -4 c5 -24 3 -23 -15 11 -25 46 -26 51 -6 32
7 -8 17 -28 21 -43z m4814 21 c0 -24 -5 -35 -15 -35 -8 0 -15 5 -15 11 0 5 5
7 11 3 7 -4 10 3 9 17 -3 30 -1 39 5 39 3 0 5 -16 5 -35z m-4773 -57 c-3 -7
-5 -2 -5 12 0 14 2 19 5 13 2 -7 2 -19 0 -25z m66 -10 c-8 -46 -13 -48 -13 -5
0 21 4 37 10 37 5 0 7 -14 3 -32z m4710 -25 c5 -26 4 -26 -9 -8 -15 21 -19 49
-5 41 5 -3 11 -18 14 -33z m-5036 -35 c-3 -8 -6 -5 -6 6 -1 11 2 17 5 13 3 -3
4 -12 1 -19z m4883 12 c0 -5 -5 -10 -11 -10 -5 0 -7 5 -4 10 3 6 8 10 11 10 2
0 4 -4 4 -10z m-4570 -25 c0 -8 -4 -17 -10 -20 -6 -4 -10 5 -10 20 0 15 4 24
10 20 6 -3 10 -12 10 -20z m-19 -82 c-9 -16 -10 -15 -11 8 0 14 3 29 8 33 12
12 14 -22 3 -41z m-371 -19 c0 -8 -4 -13 -9 -9 -5 3 -12 -3 -14 -12 -4 -14 -5
-13 -6 4 -1 18 6 26 27 32 1 1 2 -6 2 -15z m5065 -14 c10 -11 16 -20 13 -20
-3 0 -13 9 -23 20 -10 11 -16 20 -13 20 3 0 13 -9 23 -20z m-4695 -30 c0 -5
-4 -10 -10 -10 -5 0 -10 5 -10 10 0 6 5 10 10 10 6 0 10 -4 10 -10z m-380 -15
c0 12 20 -16 20 -29 0 -5 -9 -1 -20 9 -11 10 -20 23 -20 29 0 6 5 4 10 -4 5
-8 10 -10 10 -5z m-949 -28 c-8 -8 -11 -7 -11 4 0 20 13 34 18 19 3 -7 -1 -17
-7 -23z m-14 -39 c-3 -8 -6 -5 -6 6 -1 11 2 17 5 13 3 -3 4 -12 1 -19z m1283
-82 c0 -2 -8 -10 -17 -17 -16 -13 -17 -12 -4 4 13 16 21 21 21 13z m3240 -56
c0 -5 -2 -10 -4 -10 -3 0 -8 5 -11 10 -3 6 -1 10 4 10 6 0 11 -4 11 -10z
m-3436 -25 c3 -9 0 -15 -8 -15 -7 0 -19 7 -26 15 -10 12 -9 15 8 15 11 0 22
-7 26 -15z m1560 -40 c-9 -14 -18 -25 -21 -25 -5 0 5 18 20 38 17 22 18 13 1
-13z m-1566 -10 c0 -14 -4 -25 -9 -25 -10 0 -11 12 -3 34 9 22 12 20 12 -9z
m4642 -94 c-1 -13 -2 -13 -11 3 -9 15 -13 16 -20 5 -7 -11 -9 -11 -9 2 0 9 3
19 7 22 9 10 33 -13 33 -32z m91 2 c-8 -15 -10 -15 -11 -2 0 17 10 32 18 25 2
-3 -1 -13 -7 -23z m-3255 -51 c-30 -60 -74 -169 -104 -257 -6 -16 -11 -24 -11
-18 -3 44 124 343 145 343 2 0 -11 -31 -30 -68z m-1110 -79 c-7 -7 -39 46 -53
87 -22 62 -13 57 23 -14 19 -38 32 -71 30 -73z m2898 100 c38 -8 84 -21 102
-29 35 -15 53 -34 32 -34 -23 0 -50 -73 -51 -138 -1 -50 -4 -62 -17 -62 -11 0
-21 14 -29 39 -22 77 -124 128 -232 118 -150 -13 -280 -120 -369 -302 -65
-134 -79 -213 -61 -338 17 -126 65 -208 164 -281 20 -16 37 -35 37 -43 0 -8
16 -47 36 -86 55 -109 64 -139 48 -155 -8 -7 -14 -8 -14 -2 0 5 -4 10 -10 10
-5 0 -10 -9 -10 -20 0 -25 -15 -26 -32 -2 -7 10 -20 22 -28 27 -13 8 -13 6 -2
-8 13 -15 9 -37 -7 -37 -15 0 -71 57 -71 73 0 10 -6 17 -14 17 -8 0 -28 14
-46 30 -18 17 -30 24 -27 16 3 -8 0 -17 -7 -19 -10 -4 -12 1 -8 15 4 18 3 19
-16 9 -37 -20 -103 6 -151 58 -13 14 -20 20 -16 13 9 -17 -2 -62 -16 -62 -8 0
-7 5 1 15 17 21 -3 44 -33 39 l-22 -5 23 10 c28 13 28 22 -3 55 -14 15 -25 22
-25 15 0 -6 -7 -9 -15 -5 -8 3 -15 1 -15 -4 0 -6 -7 -10 -14 -10 -33 0 -109
137 -120 215 -5 31 -4 36 4 20 9 -18 10 -17 5 5 -2 14 -5 33 -5 43 0 12 -5 16
-12 11 -10 -6 -10 -4 0 7 14 15 16 49 3 49 -5 0 -12 -10 -15 -22 -2 -13 -4 9
-2 47 1 60 8 83 44 155 90 182 262 374 420 467 114 67 176 92 257 103 79 11
252 2 339 -17z m-2359 -3 c-10 -16 -65 -42 -78 -36 -8 3 -6 5 3 5 8 1 26 10
40 21 27 21 45 26 35 10z m3820 -17 c-9 -40 -23 -50 -22 -17 2 25 12 43 26 44
2 0 0 -12 -4 -27z m-4728 -5 c-3 -8 -6 -5 -6 6 -1 11 2 17 5 13 3 -3 4 -12 1
-19z m783 -25 c8 -9 -94 7 -103 16 -5 5 15 4 45 -1 29 -5 55 -12 58 -15z
m5655 -110 c8 -5 -40 -7 -108 -5 -85 2 -117 0 -107 -8 13 -8 12 -10 -5 -10
-11 0 -31 3 -45 7 -24 7 -23 8 15 20 43 14 223 11 250 -4z m-7444 -18 c76 -29
75 -29 -16 -10 -107 23 -245 19 -229 -6 3 -5 -2 -9 -11 -9 -9 0 -27 -11 -40
-25 -14 -13 -25 -20 -25 -15 0 14 57 70 82 80 48 19 172 11 239 -15z m1589
-48 c0 -5 -4 -5 -10 -2 -5 3 -10 14 -10 23 0 15 2 15 10 2 5 -8 10 -19 10 -23z
m3968 -2 c-12 -14 -24 -23 -26 -20 -6 6 28 45 39 45 5 0 -1 -11 -13 -25z
m-3943 -15 c3 -5 1 -10 -4 -10 -6 0 -11 5 -11 10 0 6 2 10 4 10 3 0 8 -4 11
-10z m35 -30 c0 -5 -4 -10 -9 -10 -6 0 -13 5 -16 10 -3 6 1 10 9 10 9 0 16 -4
16 -10z m3870 6 c0 -6 -71 -76 -77 -76 -6 0 39 63 52 72 11 8 25 10 25 4z
m-1170 -28 c0 -29 -13 -58 -25 -58 -8 0 -11 8 -8 23 9 40 12 47 23 47 5 0 10
-6 10 -12z m2923 -95 c-7 -2 -19 -2 -25 0 -7 3 -2 5 12 5 14 0 19 -2 13 -5z
m-7207 -34 c65 -25 68 -36 3 -14 -24 9 -71 18 -104 22 -33 3 -67 10 -75 15
-28 17 120 -2 176 -23z m7277 24 c-7 -2 -19 -2 -25 0 -7 3 -2 5 12 5 14 0 19
-2 13 -5z m-7790 -92 c66 -4 74 -6 42 -11 -35 -4 -66 -2 -150 15 -11 2 -29 4
-39 4 -15 1 -17 4 -8 13 8 8 15 8 28 -3 16 -13 17 -12 10 5 -7 19 -6 19 14 1
15 -13 42 -20 103 -24z m2047 9 c0 -5 -5 -10 -11 -10 -5 0 -7 5 -4 10 3 6 8
10 11 10 2 0 4 -4 4 -10z m6183 3 c-7 -2 -19 -2 -25 0 -7 3 -2 5 12 5 14 0 19
-2 13 -5z m-110 -20 c-7 -2 -19 -2 -25 0 -7 3 -2 5 12 5 14 0 19 -2 13 -5z
m-5854 -67 c-2 -2 -15 -9 -29 -15 -24 -11 -24 -11 -6 3 16 13 49 24 35 12z
m-113 -45 c-1 -18 -136 -170 -136 -153 0 5 28 40 63 77 36 41 54 66 42 62 -16
-6 -15 -3 5 13 14 11 26 20 26 20 1 0 1 -8 0 -19z m161 -17 c-3 -3 -12 -4 -19
-1 -8 3 -5 6 6 6 11 1 17 -2 13 -5z m-667 -74 c0 -5 -4 -10 -10 -10 -5 0 -10
5 -10 10 0 6 5 10 10 10 6 0 10 -4 10 -10z m-120 -10 c0 -5 9 -19 21 -31 11
-11 18 -24 14 -27 -3 -4 -10 0 -15 8 -8 12 -10 11 -10 -5 -1 -19 -1 -19 -11
-2 -6 10 -8 21 -5 24 3 3 1 14 -5 24 -6 13 -6 19 1 19 5 0 10 -4 10 -10z
m1667 -42 c-2 -13 -4 -5 -4 17 -1 22 1 32 4 23 2 -10 2 -28 0 -40z m-1765 10
c-15 -15 -24 -6 -16 16 5 12 10 14 17 7 8 -8 8 -14 -1 -23z m1770 -90 c2 -20
0 -34 -4 -32 -4 3 -8 24 -7 47 1 47 6 41 11 -15z m1026 -499 c15 -16 33 -29
39 -29 16 0 17 -16 3 -25 -8 -5 -7 -11 1 -21 10 -12 8 -13 -8 -7 -95 38 -166
130 -88 115 14 -2 38 -17 53 -33z m83 -106 c13 -16 12 -17 -3 -4 -10 7 -18 15
-18 17 0 8 8 3 21 -13z m174 -123 c3 -5 1 -10 -4 -10 -6 0 -11 5 -11 10 0 6 2
10 4 10 3 0 8 -4 11 -10z m518 -15 c-3 -9 -8 -14 -10 -11 -3 3 -2 9 2 15 9 16
15 13 8 -4z m-56 -87 c-44 -66 -125 -132 -232 -191 -56 -31 -45 -22 70 62 44
32 100 81 125 108 47 51 64 61 37 21z m-517 -82 c0 -2 -7 -7 -16 -10 -8 -3
-12 -2 -9 4 6 10 25 14 25 6z m-113 -52 c-3 -3 -12 -4 -19 -1 -8 3 -5 6 6 6
11 1 17 -2 13 -5z m-147 -248 c0 -2 -7 -7 -16 -10 -8 -3 -12 -2 -9 4 6 10 25
14 25 6z m-373 -12 c-3 -3 -12 -4 -19 -1 -8 3 -5 6 6 6 11 1 17 -2 13 -5z
m-692 -1304 c3 -6 -1 -7 -9 -4 -18 7 -21 14 -7 14 6 0 13 -4 16 -10z m85 -26
c0 -2 -9 -4 -20 -4 -11 0 -20 4 -20 9 0 5 9 7 20 4 11 -3 20 -7 20 -9z m835 7
c-6 -4 -26 -11 -45 -14 l-35 -6 30 14 c34 16 64 20 50 6z m-90 -31 c-3 -5 -11
-10 -16 -10 -6 0 -7 5 -4 10 3 6 11 10 16 10 6 0 7 -4 4 -10z m-35 -20 c21
-13 10 -19 -23 -13 -21 4 -25 8 -15 14 16 11 20 11 38 -1z m440 -60 c10 0 21
-4 24 -9 9 -13 -100 14 -156 39 -74 33 -56 33 33 0 44 -17 89 -30 99 -30z m73
-7 c-7 -2 -19 -2 -25 0 -7 3 -2 5 12 5 14 0 19 -2 13 -5z m-1526 -1009 c-3 -3
-12 -4 -19 -1 -8 3 -5 6 6 6 11 1 17 -2 13 -5z m-90 -40 c-3 -3 -12 -4 -19 -1
-8 3 -5 6 6 6 11 1 17 -2 13 -5z"/>
<path d="M5140 9530 c0 -5 5 -10 11 -10 5 0 7 5 4 10 -3 6 -8 10 -11 10 -2 0
-4 -4 -4 -10z"/>
<path d="M5158 9472 c-3 -10 5 -31 18 -48 19 -23 24 -25 24 -11 0 11 4 15 12
11 7 -4 8 -3 4 4 -4 6 -14 8 -23 5 -11 -4 -14 -3 -9 5 4 7 1 21 -7 32 -14 20
-15 20 -19 2z"/>
<path d="M5140 9346 c0 -8 4 -17 9 -20 5 -4 7 3 4 14 -6 23 -13 26 -13 6z"/>
<path d="M4945 9313 l-18 -28 27 24 c28 26 31 31 17 31 -5 0 -17 -12 -26 -27z"/>
<path d="M5180 9275 c0 -8 4 -15 10 -15 5 0 7 7 4 15 -4 8 -8 15 -10 15 -2 0
-4 -7 -4 -15z"/>
<path d="M5079 9224 c0 -16 -2 -58 -5 -93 -5 -65 0 -111 14 -111 9 0 9 216 0
226 -5 4 -8 -6 -9 -22z"/>
<path d="M5150 9220 c0 -5 5 -10 11 -10 5 0 7 5 4 10 -3 6 -8 10 -11 10 -2 0
-4 -4 -4 -10z"/>
<path d="M4858 9173 c6 -2 18 -2 25 0 6 3 1 5 -13 5 -14 0 -19 -2 -12 -5z"/>
<path d="M5122 9050 c0 -14 2 -19 5 -12 2 6 2 18 0 25 -3 6 -5 1 -5 -13z"/>
<path d="M5101 9003 c-2 -24 19 -64 30 -57 8 4 8 9 1 13 -6 4 -15 18 -21 31
-5 14 -10 20 -10 13z"/>
<path d="M5131 8994 c0 -11 3 -14 6 -6 3 7 2 16 -1 19 -3 4 -6 -2 -5 -13z"/>
<path d="M5142 8915 c0 -16 2 -22 5 -12 2 9 2 23 0 30 -3 6 -5 -1 -5 -18z"/>
<path d="M5130 8836 c0 -9 5 -16 10 -16 6 0 10 4 10 9 0 6 -4 13 -10 16 -5 3
-10 -1 -10 -9z"/>
<path d="M4440 8899 c0 -5 5 -7 10 -4 6 3 10 8 10 11 0 2 -4 4 -10 4 -5 0 -10
-5 -10 -11z"/>
<path d="M4405 8880 c-3 -6 1 -7 9 -4 18 7 21 14 7 14 -6 0 -13 -4 -16 -10z"/>
<path d="M4386 8825 c-22 -17 -14 -35 13 -28 12 3 19 13 18 24 -2 22 -6 23
-31 4z"/>
<path d="M4218 8797 c-14 -6 -29 -19 -32 -30 -4 -18 -4 -18 15 2 11 11 29 21
39 21 11 0 20 5 20 10 0 12 -6 11 -42 -3z"/>
<path d="M4430 8800 c0 -5 9 -10 21 -10 11 0 17 5 14 10 -3 6 -13 10 -21 10
-8 0 -14 -4 -14 -10z"/>
<path d="M4150 8770 c-9 -6 -10 -10 -3 -10 6 0 15 5 18 10 8 12 4 12 -15 0z"/>
<path d="M4262 8739 c-18 -5 -30 -14 -27 -20 4 -5 16 -7 28 -3 12 4 30 7 40 6
15 -1 16 2 7 14 -7 8 -13 14 -14 13 0 0 -16 -5 -34 -10z"/>
<path d="M4355 8740 c3 -5 11 -10 16 -10 6 0 7 5 4 10 -3 6 -11 10 -16 10 -6
0 -7 -4 -4 -10z"/>
<path d="M4160 8715 c0 -10 40 -45 53 -45 6 0 8 1 6 3 -2 1 -16 13 -31 26 -16
14 -28 21 -28 16z"/>
<path d="M4408 8713 c7 -3 16 -2 19 1 4 3 -2 6 -13 5 -11 0 -14 -3 -6 -6z"/>
<path d="M4338 8703 c7 -3 16 -2 19 1 4 3 -2 6 -13 5 -11 0 -14 -3 -6 -6z"/>
<path d="M4440 8689 c0 -5 9 -9 20 -9 11 0 20 2 20 4 0 2 -9 6 -20 9 -11 3
-20 1 -20 -4z"/>
<path d="M4370 8670 c0 -5 -26 -11 -57 -12 -53 -1 -54 -2 -14 -5 51 -5 91 3
91 17 0 6 -4 10 -10 10 -5 0 -10 -4 -10 -10z"/>
<path d="M3865 8636 c-36 -12 -64 -25 -62 -31 4 -12 57 -15 77 -4 25 14 109
39 130 39 11 0 20 4 20 8 0 16 -100 8 -165 -12z"/>
<path d="M4120 8640 c-12 -8 -11 -10 8 -10 12 0 22 5 22 10 0 13 -11 13 -30 0z"/>
<path d="M4178 8643 c6 -2 18 -2 25 0 6 3 1 5 -13 5 -14 0 -19 -2 -12 -5z"/>
<path d="M4027 8624 c-3 -4 -21 -10 -39 -15 -27 -7 -24 -8 20 -4 62 5 106 24
56 25 -17 0 -33 -3 -37 -6z"/>
<path d="M3760 8540 c0 -5 7 -7 15 -4 8 4 15 8 15 10 0 2 -7 4 -15 4 -8 0 -15
-4 -15 -10z"/>
<path d="M3958 8503 c7 -3 16 -2 19 1 4 3 -2 6 -13 5 -11 0 -14 -3 -6 -6z"/>
<path d="M5646 8955 c3 -8 20 -22 37 -30 l32 -16 -33 31 c-37 34 -44 37 -36
15z"/>
<path d="M5785 8900 c-3 -5 1 -10 9 -10 9 0 16 5 16 10 0 6 -4 10 -9 10 -6 0
-13 -4 -16 -10z"/>
<path d="M5580 8889 c0 -5 5 -7 10 -4 6 3 10 8 10 11 0 2 -4 4 -10 4 -5 0 -10
-5 -10 -11z"/>
<path d="M5570 8840 c0 -5 5 -10 11 -10 5 0 7 5 4 10 -3 6 -8 10 -11 10 -2 0
-4 -4 -4 -10z"/>
<path d="M5510 8799 c0 -5 5 -7 10 -4 6 3 10 8 10 11 0 2 -4 4 -10 4 -5 0 -10
-5 -10 -11z"/>
<path d="M7266 8764 c-4 -9 -4 -19 -1 -22 2 -3 7 3 11 12 4 9 4 19 1 22 -2 3
-7 -3 -11 -12z"/>
<path d="M5787 8756 c-4 -10 1 -12 14 -9 23 6 24 9 5 16 -8 3 -17 0 -19 -7z"/>
<path d="M5935 8710 c3 -5 11 -10 16 -10 6 0 7 5 4 10 -3 6 -11 10 -16 10 -6
0 -7 -4 -4 -10z"/>
<path d="M6230 8670 c-9 -5 -30 -7 -48 -6 -46 3 -49 -10 -4 -18 21 -3 38 -1
40 4 2 6 11 10 20 9 11 0 12 -2 4 -6 -18 -7 -4 -23 21 -23 18 0 19 2 7 10 -11
8 -4 10 28 7 23 -2 42 0 42 5 0 4 -10 9 -22 9 -13 1 -30 2 -38 3 -8 1 -20 4
-25 8 -6 3 -17 3 -25 -2z"/>
<path d="M5708 8653 c6 -2 18 -2 25 0 6 3 1 5 -13 5 -14 0 -19 -2 -12 -5z"/>
<path d="M5768 8643 c6 -2 18 -2 25 0 6 3 1 5 -13 5 -14 0 -19 -2 -12 -5z"/>
<path d="M5833 8633 c9 -2 25 -2 35 0 9 3 1 5 -18 5 -19 0 -27 -2 -17 -5z"/>
<path d="M6087 8634 c-4 -4 -51 -7 -105 -5 -53 1 -94 0 -90 -4 3 -4 52 -8 107
-10 55 -2 104 -6 109 -9 4 -2 14 -1 22 5 12 7 10 9 -7 9 -12 0 -23 5 -25 11
-2 5 -7 7 -11 3z"/>
<path d="M6290 8626 c0 -2 11 -6 25 -8 13 -3 22 -1 19 3 -5 9 -44 13 -44 5z"/>
<path d="M6363 8616 c0 -7 7 -12 16 -12 9 -1 59 -13 111 -28 169 -48 160 -46
160 -26 0 15 -11 20 -57 25 -32 4 -77 13 -101 21 -24 8 -48 12 -53 8 -6 -3
-15 -1 -22 4 -20 15 -54 20 -54 8z m247 -56 c13 -8 13 -10 -2 -10 -9 0 -20 5
-23 10 -8 13 5 13 25 0z"/>
<path d="M6160 8601 c8 -5 42 -12 75 -15 52 -5 55 -4 25 5 -48 14 -119 21
-100 10z"/>
<path d="M7010 8580 c0 -5 7 -10 15 -10 8 0 15 5 15 10 0 6 -7 10 -15 10 -8 0
-15 -4 -15 -10z"/>
<path d="M6308 8573 c7 -3 16 -2 19 1 4 3 -2 6 -13 5 -11 0 -14 -3 -6 -6z"/>
<path d="M6939 8559 c-8 -5 -24 -9 -37 -9 -13 0 -20 -4 -17 -10 7 -12 123 -11
130 0 7 11 -62 28 -76 19z"/>
<path d="M6288 8553 c7 -3 16 -2 19 1 4 3 -2 6 -13 5 -11 0 -14 -3 -6 -6z"/>
<path d="M4920 8946 c0 -2 7 -6 15 -10 8 -3 15 -1 15 4 0 6 -7 10 -15 10 -8 0
-15 -2 -15 -4z"/>
<path d="M2140 8708 c0 -9 5 -20 10 -23 13 -8 13 5 0 25 -8 13 -10 13 -10 -2z"/>
<path d="M2185 8560 c3 -5 8 -10 11 -10 2 0 4 5 4 10 0 6 -5 10 -11 10 -5 0
-7 -4 -4 -10z"/>
<path d="M2146 8507 c3 -10 9 -15 12 -12 3 3 0 11 -7 18 -10 9 -11 8 -5 -6z"/>
<path d="M2440 8036 c0 -2 8 -10 18 -17 15 -13 16 -12 3 4 -13 16 -21 21 -21
13z"/>
<path d="M4636 8854 c-3 -9 -6 -16 -6 -17 0 -1 11 -3 25 -3 30 -2 32 7 6 23
-16 10 -20 9 -25 -3z"/>
<path d="M7835 8480 c-3 -6 1 -7 9 -4 18 7 21 14 7 14 -6 0 -13 -4 -16 -10z"/>
<path d="M2940 8770 c0 -5 5 -10 10 -10 6 0 10 5 10 10 0 6 -4 10 -10 10 -5 0
-10 -4 -10 -10z"/>
<path d="M3000 8720 c0 -46 127 -186 160 -177 11 3 18 2 15 -3 -6 -10 42 -19
68 -12 17 4 11 9 -28 21 -39 13 -57 26 -84 62 -30 40 -36 45 -48 33 -16 -16
-27 -19 -19 -5 3 5 -1 12 -10 15 -10 4 -13 13 -9 27 5 14 3 19 -3 15 -6 -3
-18 4 -26 16 -11 15 -16 17 -16 8z"/>
<path d="M2957 8664 c-13 -13 -8 -46 7 -41 8 3 18 -5 25 -19 6 -13 18 -24 28
-24 14 0 13 5 -8 27 -13 15 -27 30 -30 33 -3 3 -8 11 -10 18 -3 7 -8 10 -12 6z"/>
<path d="M3157 8599 c7 -7 15 -10 18 -7 3 3 -2 9 -12 12 -14 6 -15 5 -6 -5z"/>
<path d="M3071 8589 c-1 -9 7 -23 17 -30 15 -12 16 -12 6 1 -6 8 -14 22 -17
30 -5 13 -6 12 -6 -1z"/>
<path d="M3210 8570 c0 -5 7 -10 15 -10 8 0 15 5 15 10 0 6 -7 10 -15 10 -8 0
-15 -4 -15 -10z"/>
<path d="M3250 8571 c0 -9 52 -22 59 -15 6 6 -1 11 -31 18 -16 3 -28 2 -28 -3z"/>
<path d="M3007 8563 c-4 -3 -7 -13 -7 -22 1 -13 3 -13 11 2 11 19 8 33 -4 20z"/>
<path d="M3031 8514 c0 -11 3 -14 6 -6 3 7 2 16 -1 19 -3 4 -6 -2 -5 -13z"/>
<path d="M3160 8475 c-15 -8 -19 -14 -10 -14 18 -1 46 16 40 23 -3 2 -16 -2
-30 -9z"/>
<path d="M5370 8680 c0 -5 5 -10 10 -10 6 0 10 5 10 10 0 6 -4 10 -10 10 -5 0
-10 -4 -10 -10z"/>
<path d="M2648 8693 c6 -2 18 -2 25 0 6 3 1 5 -13 5 -14 0 -19 -2 -12 -5z"/>
<path d="M5441 8134 c-13 -13 -20 -24 -14 -24 5 0 20 11 33 25 30 32 13 31
-19 -1z"/>
<path d="M7916 8234 c-9 -24 -7 -27 9 -10 17 17 19 26 6 26 -5 0 -12 -7 -15
-16z"/>
<path d="M7705 8010 c-3 -5 -2 -10 4 -10 5 0 13 5 16 10 3 6 2 10 -4 10 -5 0
-13 -4 -16 -10z"/>
<path d="M4258 8053 c7 -3 16 -2 19 1 4 3 -2 6 -13 5 -11 0 -14 -3 -6 -6z"/>
<path d="M4255 8020 c-3 -5 -1 -10 4 -10 6 0 11 5 11 10 0 6 -2 10 -4 10 -3 0
-8 -4 -11 -10z"/>
<path d="M3996 7929 c4 -8 0 -9 -15 -4 -23 7 -28 -4 -10 -22 17 -17 63 5 48
24 -14 16 -33 18 -23 2z"/>
<path d="M4921 8144 c0 -11 3 -14 6 -6 3 7 2 16 -1 19 -3 4 -6 -2 -5 -13z"/>
<path d="M4980 8112 c0 -13 23 -32 38 -32 7 0 10 4 7 10 -9 14 -45 32 -45 22z"/>
<path d="M6040 7990 c0 -5 7 -10 15 -10 8 0 15 5 15 10 0 6 -7 10 -15 10 -8 0
-15 -4 -15 -10z"/>
<path d="M6085 7980 c-3 -5 3 -14 14 -19 26 -15 31 -14 25 3 -7 18 -32 28 -39
16z"/>
<path d="M6190 7912 c0 -5 12 -14 27 -21 28 -13 28 -13 9 8 -20 22 -36 27 -36
13z"/>
<path d="M6240 7861 c0 -5 5 -13 10 -16 6 -3 10 -2 10 4 0 5 -4 13 -10 16 -5
3 -10 2 -10 -4z"/>
<path d="M4335 7900 c-3 -5 1 -10 9 -10 9 0 16 5 16 10 0 6 -4 10 -9 10 -6 0
-13 -4 -16 -10z"/>
<path d="M4380 7854 c0 -16 9 -18 28 -5 10 6 9 10 -7 14 -14 3 -21 0 -21 -9z"/>
<path d="M6055 7780 c3 -5 11 -10 16 -10 6 0 7 5 4 10 -3 6 -11 10 -16 10 -6
0 -7 -4 -4 -10z"/>
<path d="M8363 6965 c-9 -25 4 -29 17 -6 7 15 7 21 0 21 -6 0 -13 -7 -17 -15z"/>
<path d="M1832 7013 c11 -18 23 -31 26 -28 3 3 0 11 -6 17 -15 15 -16 42 -2
33 6 -3 10 -2 10 3 0 5 -11 10 -24 10 l-24 0 20 -35z"/>
<path d="M1840 6920 c0 -5 5 -10 11 -10 5 0 7 5 4 10 -3 6 -8 10 -11 10 -2 0
-4 -4 -4 -10z"/>
<path d="M5642 6932 c-12 -12 -25 -40 -28 -62 -5 -33 -10 -40 -23 -34 -29 14
-139 16 -196 4 -72 -15 -197 -78 -257 -130 -93 -80 -135 -182 -92 -224 19 -19
13 -19 204 -17 255 3 370 -24 613 -147 131 -66 156 -75 217 -80 92 -6 148 20
188 86 24 42 27 57 26 132 -1 200 -113 324 -358 394 -90 26 -172 34 -161 16 3
-5 -2 -10 -11 -10 -10 0 -36 21 -59 47 l-41 47 -22 -22z"/>
<path d="M6380 6570 c0 -5 5 -10 11 -10 5 0 7 5 4 10 -3 6 -8 10 -11 10 -2 0
-4 -4 -4 -10z"/>
<path d="M6390 6520 c0 -5 5 -10 11 -10 5 0 7 5 4 10 -3 6 -8 10 -11 10 -2 0
-4 -4 -4 -10z"/>
<path d="M6308 6440 c-14 -134 -66 -195 -183 -211 -45 -7 -43 -7 18 -5 128 7
180 67 175 203 l-3 78 -7 -65z"/>
<path d="M4930 6435 c0 -25 46 -65 75 -65 39 0 31 27 -11 35 -24 4 -38 13 -41
26 -6 23 -23 26 -23 4z"/>
<path d="M4995 6430 c3 -5 10 -10 16 -10 5 0 9 5 9 10 0 6 -7 10 -16 10 -8 0
-12 -4 -9 -10z"/>
<path d="M4765 6410 c-11 -35 33 -68 51 -38 4 7 3 8 -4 4 -17 -10 -15 10 3 28
21 21 19 26 -14 26 -21 0 -32 -6 -36 -20z"/>
<path d="M4389 6073 c-1 -5 0 -16 1 -27 1 -10 -4 -22 -11 -27 -8 -4 -10 -11
-6 -15 9 -9 37 15 37 31 0 8 6 16 13 18 9 4 8 8 -3 16 -18 13 -30 14 -31 4z"/>
<path d="M6340 6066 c0 -9 5 -16 10 -16 6 0 10 4 10 9 0 6 -4 13 -10 16 -5 3
-10 -1 -10 -9z"/>
<path d="M6310 6050 c0 -5 5 -10 11 -10 5 0 7 5 4 10 -3 6 -8 10 -11 10 -2 0
-4 -4 -4 -10z"/>
<path d="M6240 5863 c0 -13 5 -23 10 -23 13 0 13 11 0 30 -8 12 -10 11 -10 -7z"/>
<path d="M6235 5670 c-3 -5 -1 -10 4 -10 6 0 11 5 11 10 0 6 -2 10 -4 10 -3 0
-8 -4 -11 -10z"/>
<path d="M4185 5530 c-3 -5 -1 -10 4 -10 6 0 11 5 11 10 0 6 -2 10 -4 10 -3 0
-8 -4 -11 -10z"/>
<path d="M6301 5464 c0 -11 3 -14 6 -6 3 7 2 16 -1 19 -3 4 -6 -2 -5 -13z"/>
<path d="M6350 5407 c0 -19 -29 -75 -43 -84 -7 -4 -19 -8 -27 -8 -8 0 -17 -11
-18 -24 -2 -13 -10 -31 -18 -38 -8 -8 -14 -20 -13 -26 0 -8 2 -8 6 1 2 6 9 10
14 6 5 -3 9 2 9 11 0 12 6 15 23 11 12 -3 16 -3 9 0 -10 5 -9 9 5 20 17 12 16
13 -7 8 -21 -4 -20 -2 6 10 17 8 38 25 46 38 19 29 31 88 18 88 -6 0 -10 -6
-10 -13z"/>
<path d="M4251 5294 c0 -11 3 -14 6 -6 3 7 2 16 -1 19 -3 4 -6 -2 -5 -13z"/>
<path d="M3944 5209 c-19 -21 -18 -21 5 -40 13 -10 29 -19 36 -19 22 0 38 28
31 55 -8 32 -45 34 -72 4z"/>
<path d="M4220 4959 c0 -8 5 -21 10 -29 8 -12 9 -10 7 7 -4 26 -17 43 -17 22z"/>
<path d="M4152 4878 c-15 -15 -16 -45 -2 -53 17 -10 50 5 50 24 0 16 -18 41
-30 41 -3 0 -11 -5 -18 -12z"/>
<path d="M4311 4864 c0 -11 3 -14 6 -6 3 7 2 16 -1 19 -3 4 -6 -2 -5 -13z"/>
<path d="M5822 4830 c0 -19 2 -27 5 -17 2 9 2 25 0 35 -3 9 -5 1 -5 -18z"/>
<path d="M4255 4767 c-9 -19 -31 -42 -49 -52 -26 -14 -32 -23 -28 -42 5 -27
22 -42 22 -19 0 9 7 16 15 16 8 0 15 -7 15 -15 0 -8 6 -15 14 -15 8 0 16 -7
20 -15 3 -9 0 -15 -9 -15 -20 0 -19 -9 6 -90 24 -81 99 -232 117 -238 8 -2 10
2 5 15 -3 10 15 -8 42 -39 49 -60 58 -68 49 -44 -7 18 12 30 22 15 4 -8 3 -9
-4 -5 -7 4 -12 4 -12 0 0 -14 62 -104 71 -104 6 0 9 -8 7 -17 -2 -10 2 -18 8
-18 6 0 27 -13 45 -29 37 -31 124 -74 207 -101 56 -18 88 -13 34 6 -18 6 -30
15 -27 19 3 4 -2 11 -11 14 -8 3 -12 2 -9 -4 3 -6 2 -10 -4 -10 -5 0 -14 6
-18 13 -9 15 -79 57 -94 57 -6 0 -7 -5 -3 -12 4 -7 3 -8 -5 -4 -6 4 -9 11 -7
15 3 4 -16 25 -42 46 -30 24 -38 29 -23 12 14 -15 20 -27 14 -27 -11 0 -51 41
-53 55 -1 6 -6 9 -11 8 -9 -3 -59 58 -59 72 0 5 16 -7 36 -26 34 -31 35 -32
19 -6 -10 15 -26 32 -36 38 -11 5 -19 15 -19 22 0 7 -11 22 -23 34 -31 29 -59
89 -98 208 -18 55 -38 109 -45 120 -7 11 -15 55 -19 98 -4 42 -11 77 -16 77
-6 0 -8 -25 -5 -62 3 -35 5 -63 6 -63 1 0 3 -16 6 -35 10 -79 73 -234 127
-313 22 -31 38 -60 35 -62 -10 -10 -72 79 -114 163 -9 17 -20 32 -25 32 -6 0
-5 -9 1 -21 6 -11 9 -25 7 -32 -3 -7 -8 -4 -12 8 -4 11 -13 33 -20 50 -8 18
-10 34 -5 40 9 11 -6 85 -37 181 -15 47 -15 52 2 87 10 21 15 40 12 43 -3 3
-13 -10 -22 -29z"/>
<path d="M5814 4694 c-4 -22 -2 -40 5 -47 8 -8 11 1 11 36 0 56 -7 61 -16 11z"/>
<path d="M6356 4659 c-26 -27 -43 -49 -37 -49 6 0 11 5 11 10 0 6 6 10 13 8
25 -4 59 14 53 29 -4 9 -1 22 5 30 7 7 10 15 8 18 -3 2 -26 -18 -53 -46z"/>
<path d="M6430 4690 c0 -5 5 -10 11 -10 5 0 7 5 4 10 -3 6 -8 10 -11 10 -2 0
-4 -4 -4 -10z"/>
<path d="M4341 4643 c0 -18 3 -33 8 -33 5 0 12 -12 16 -27 11 -47 66 -182 75
-188 9 -5 -19 76 -55 162 -8 20 -15 44 -15 55 0 10 -4 17 -9 13 -5 -3 -12 7
-14 22 -4 26 -4 26 -6 -4z"/>
<path d="M5802 4599 c-5 -19 -5 -39 -1 -45 13 -17 7 -105 -7 -100 -18 7 -25
-5 -13 -20 6 -8 16 -11 21 -8 6 4 13 1 17 -5 4 -6 8 27 8 74 0 49 -4 85 -10
85 -5 0 -4 7 3 15 10 12 10 19 2 27 -8 8 -13 1 -20 -23z"/>
<path d="M6270 4585 c-7 -8 -19 -15 -26 -15 -8 0 -14 -6 -14 -13 0 -19 -35
-49 -45 -40 -4 5 -5 2 0 -5 4 -8 0 -25 -12 -40 -11 -15 -22 -35 -26 -44 -3
-10 -11 -18 -16 -18 -6 0 -7 8 -4 18 6 15 5 16 -13 2 -10 -8 -26 -21 -34 -29
-25 -24 -105 -56 -152 -60 -18 -2 -6 -20 15 -24 l22 -4 -22 -2 c-13 0 -23 -5
-23 -10 0 -10 50 -9 67 2 49 31 129 67 140 63 7 -3 13 1 13 8 0 8 7 16 15 20
8 3 15 10 15 16 0 17 52 70 62 64 6 -4 5 3 -1 14 -9 16 -6 23 14 38 14 10 25
24 25 30 0 7 7 14 15 18 16 6 21 26 6 26 -5 0 -14 -7 -21 -15z"/>
<path d="M5727 4495 c-9 -19 -15 -35 -12 -35 7 0 37 61 33 66 -3 2 -12 -12
-21 -31z"/>
<path d="M5806 4375 c15 -23 34 -34 34 -19 0 16 -23 44 -36 44 -12 0 -12 -4 2
-25z"/>
<path d="M6151 4364 c0 -11 3 -14 6 -6 3 7 2 16 -1 19 -3 4 -6 -2 -5 -13z"/>
<path d="M5740 4325 c0 -11 7 -15 23 -13 12 2 22 8 22 13 0 6 -10 11 -22 13
-16 2 -23 -2 -23 -13z"/>
<path d="M4390 4266 c0 -2 8 -10 18 -17 15 -13 16 -12 3 4 -13 16 -21 21 -21
13z"/>
<path d="M5698 4263 c6 -2 18 -2 25 0 6 3 1 5 -13 5 -14 0 -19 -2 -12 -5z"/>
<path d="M5822 4191 c-40 -61 -137 -152 -205 -192 -39 -22 -61 -28 -87 -25
-19 3 -27 2 -17 0 9 -3 17 -10 17 -15 0 -5 -8 -9 -17 -9 -14 0 -15 -2 -5 -9
22 -14 -12 -21 -48 -11 -22 6 -52 5 -94 -5 -33 -8 -98 -17 -144 -21 -60 -5
-80 -10 -72 -18 7 -7 64 -11 153 -11 162 0 165 1 310 88 71 43 111 75 148 119
42 50 107 158 96 158 -2 0 -18 -22 -35 -49z"/>
<path d="M4460 4188 c0 -3 15 -17 32 -34 21 -19 26 -21 13 -5 -11 13 -19 26
-17 30 2 3 -4 7 -12 9 -9 2 -16 2 -16 0z"/>
<path d="M4810 3825 c0 -8 5 -15 10 -15 6 0 10 7 10 15 0 8 -4 15 -10 15 -5 0
-10 -7 -10 -15z"/>
<path d="M2435 6540 c3 -5 8 -10 11 -10 2 0 4 5 4 10 0 6 -5 10 -11 10 -5 0
-7 -4 -4 -10z"/>
<path d="M5378 5723 c7 -3 16 -2 19 1 4 3 -2 6 -13 5 -11 0 -14 -3 -6 -6z"/>
<path d="M5888 5713 c7 -3 16 -2 19 1 4 3 -2 6 -13 5 -11 0 -14 -3 -6 -6z"/>
<path d="M5260 5580 c0 -5 7 -10 16 -10 8 0 12 5 9 10 -3 6 -10 10 -16 10 -5
0 -9 -4 -9 -10z"/>
<path d="M5220 5540 c0 -5 5 -10 11 -10 5 0 7 5 4 10 -3 6 -8 10 -11 10 -2 0
-4 -4 -4 -10z"/>
<path d="M5207 5486 c-4 -10 -1 -13 9 -9 15 6 19 23 5 23 -5 0 -11 -7 -14 -14z"/>
<path d="M5091 5444 c0 -11 3 -14 6 -6 3 7 2 16 -1 19 -3 4 -6 -2 -5 -13z"/>
<path d="M4890 5284 c0 -8 5 -12 10 -9 6 3 10 10 10 16 0 5 -4 9 -10 9 -5 0
-10 -7 -10 -16z"/>
<path d="M5010 5125 c0 -8 5 -15 10 -15 6 0 10 7 10 15 0 8 -4 15 -10 15 -5 0
-10 -7 -10 -15z"/>
<path d="M5106 4991 c-3 -5 1 -12 10 -15 11 -4 14 -13 11 -28 -5 -19 -4 -20 9
-6 13 12 14 20 5 37 -12 22 -26 27 -35 12z"/>
<path d="M4873 4979 c-9 -9 -5 -17 17 -35 30 -26 40 -29 40 -14 0 6 -6 10 -14
10 -8 0 -18 11 -23 25 -6 20 -11 23 -20 14z"/>
<path d="M5074 4955 c-7 -18 3 -35 22 -35 14 0 13 2 0 16 -9 8 -14 20 -11 25
4 5 4 9 0 9 -3 0 -8 -7 -11 -15z"/>
<path d="M4870 4878 c0 -4 7 -8 15 -8 8 0 15 4 15 8 0 5 -7 9 -15 9 -8 0 -15
-4 -15 -9z"/>
<path d="M4935 4839 c-4 -6 -5 -13 -2 -16 7 -7 27 6 27 18 0 12 -17 12 -25 -2z"/>
<path d="M4895 4760 c3 -5 8 -10 11 -10 2 0 4 5 4 10 0 6 -5 10 -11 10 -5 0
-7 -4 -4 -10z"/>
<path d="M4965 4751 c-10 -17 12 -21 25 -6 10 12 10 15 -3 15 -9 0 -18 -4 -22
-9z"/>
<path d="M4996 4701 c-4 -7 -5 -15 -2 -18 9 -9 19 4 14 18 -4 11 -6 11 -12 0z"/>
<path d="M5315 4590 c-3 -5 -1 -10 4 -10 6 0 11 5 11 10 0 6 -2 10 -4 10 -3 0
-8 -4 -11 -10z"/>
<path d="M5275 4560 c3 -5 10 -10 16 -10 5 0 9 5 9 10 0 6 -7 10 -16 10 -8 0
-12 -4 -9 -10z"/>
<path d="M5368 4533 c7 -3 16 -2 19 1 4 3 -2 6 -13 5 -11 0 -14 -3 -6 -6z"/>
<path d="M5287 4409 c7 -7 15 -10 18 -7 3 3 -2 9 -12 12 -14 6 -15 5 -6 -5z"/>
</g>
</svg>
