<?xml version="1.0" standalone="no"?>
<!DOCTYPE svg PUBLIC "-//W3C//DTD SVG 20010904//EN"
 "http://www.w3.org/TR/2001/REC-SVG-20010904/DTD/svg10.dtd">
<svg version="1.0" xmlns="http://www.w3.org/2000/svg"
 width="1024.000000pt" height="1024.000000pt" viewBox="0 0 1024.000000 1024.000000"
 preserveAspectRatio="xMidYMid meet">
<metadata>
Created by potrace 1.16, written by Peter Selinger 2001-2019
</metadata>
<g transform="translate(0.000000,1024.000000) scale(0.100000,-0.100000)"
fill="#000000" stroke="none">
<path d="M0 5120 l0 -5120 5120 0 5120 0 0 5120 0 5120 -5120 0 -5120 0 0
-5120z m5216 4351 c13 -19 21 -38 18 -43 -3 -5 2 -19 13 -31 l18 -22 -24 20
c-20 17 -23 17 -18 3 7 -20 -23 -34 -36 -16 -19 27 4 -56 31 -113 17 -35 25
-64 20 -71 -5 -9 -8 -6 -8 8 0 12 -6 26 -13 33 -11 8 -13 0 -12 -47 2 -66 -11
-107 -30 -92 -18 15 -23 -41 -10 -113 l10 -57 28 15 c25 13 32 13 55 1 l27
-14 -30 -8 c-16 -4 -36 -14 -44 -22 -13 -13 -16 -12 -22 4 -6 16 -8 16 -13 4
-3 -8 -5 -22 -4 -30 1 -8 -1 -32 -6 -52 -6 -25 -12 -35 -22 -31 -9 3 -14 -2
-14 -16 0 -12 -5 -21 -11 -21 -7 0 -9 10 -5 24 3 14 1 28 -5 32 -9 5 -10 -8
-7 -46 7 -69 -6 -44 -22 45 -16 81 -32 105 -72 105 -19 0 -28 4 -25 13 5 14
70 11 75 -4 2 -5 7 -9 12 -9 15 0 4 32 -15 46 -18 13 -18 14 2 14 21 0 21 1 7
33 -9 17 -19 39 -24 47 -69 112 -65 97 -47 153 9 29 25 70 36 91 11 21 18 43
15 47 -3 5 0 9 6 9 6 0 15 11 21 24 6 13 22 30 35 37 17 9 21 15 12 20 -7 4
-16 5 -21 2 -5 -3 -13 1 -18 8 -7 11 -9 11 -9 1 0 -7 -6 -20 -12 -27 -30 -33
-38 -45 -38 -55 0 -9 -14 -14 -33 -11 -5 1 -6 -7 -3 -17 7 -19 -42 -76 -79
-93 -38 -18 -100 -60 -79 -54 43 11 140 -22 121 -42 -4 -4 -13 -1 -19 5 -20
20 -32 13 -13 -8 10 -11 13 -20 7 -20 -6 0 -13 4 -17 10 -3 5 -22 14 -41 19
-46 13 -78 1 -126 -47 -40 -38 -53 -34 -16 5 24 26 13 31 -18 8 -10 -8 -23
-15 -28 -15 -5 0 17 19 49 43 218 162 270 221 336 381 18 45 39 96 47 115 l14
34 35 -89 c20 -49 46 -104 59 -123z m-526 -443 c56 -59 64 -76 28 -56 -13 6
-30 13 -38 14 -8 1 -25 5 -37 7 -26 7 -37 -6 -42 -45 -1 -9 -4 -9 -11 2 -5 8
-12 11 -16 7 -4 -3 -1 -13 6 -22 10 -12 10 -15 -3 -15 -8 0 -17 -7 -21 -15 -4
-12 0 -14 19 -9 30 7 34 -12 6 -21 -32 -10 -36 -43 -10 -71 16 -17 18 -24 8
-25 -8 0 2 -7 21 -14 l35 -13 -32 -1 c-18 -1 -36 5 -40 13 -10 17 -73 50 -81
42 -6 -7 -8 -6 38 -34 22 -13 29 -22 18 -22 -9 0 -20 5 -23 10 -3 6 -11 10
-17 10 -7 0 -6 -5 1 -14 7 -8 45 -22 86 -31 40 -9 79 -23 86 -32 11 -13 11
-15 -6 -11 -11 2 -25 -3 -32 -12 -11 -13 -12 -13 -13 1 0 16 -24 29 -80 45
-14 4 -28 11 -32 17 -3 6 -27 10 -52 10 -25 -1 -46 3 -46 8 0 5 -4 9 -8 9 -5
0 -9 -7 -9 -15 0 -10 10 -15 31 -15 30 0 118 -28 132 -43 4 -4 19 -7 33 -7 43
-1 4 -16 -76 -30 -48 -9 -73 -18 -73 -27 0 -8 -13 -13 -39 -13 -21 0 -74 -11
-117 -25 -43 -14 -108 -30 -144 -36 -81 -13 -131 -28 -147 -44 -6 -7 -32 -16
-57 -19 -25 -4 -59 -14 -75 -22 -40 -20 -137 -32 -127 -15 4 7 16 9 27 6 11
-4 25 -2 32 3 7 6 23 12 37 15 14 2 -2 3 -35 1 l-60 -4 39 15 c56 21 58 28 7
20 -38 -6 -43 -5 -38 9 6 14 3 15 -13 6 -11 -6 -20 -15 -20 -20 0 -6 -5 -10
-11 -10 -5 0 -7 4 -4 10 4 6 -5 8 -22 6 -15 -2 -22 -1 -15 1 6 2 12 9 12 15 0
5 7 8 15 5 8 -4 17 -2 20 3 3 5 -3 10 -12 13 -21 5 -17 6 59 29 34 10 45 17
39 27 -6 9 -14 10 -27 3 -29 -15 -198 -54 -220 -51 -10 2 -25 0 -33 -5 -9 -6
-12 -5 -9 5 3 8 16 15 29 17 49 5 154 26 159 32 3 4 28 17 57 30 28 12 56 32
61 44 9 18 11 18 11 3 1 -14 5 -16 21 -7 10 6 32 12 47 14 45 6 165 47 208 70
60 33 201 87 216 83 8 -2 10 -2 6 1 -10 5 12 32 27 32 18 0 58 45 49 55 -5 4
-3 5 4 1 16 -9 92 30 165 84 48 36 56 46 47 61 -9 18 -8 18 23 1 18 -9 44 -29
58 -44z m932 34 c6 -13 111 -97 163 -130 28 -17 56 -37 63 -43 19 -16 259
-129 275 -129 7 0 17 -4 23 -9 12 -10 182 -76 254 -97 30 -9 60 -20 65 -24 11
-9 148 -46 205 -55 19 -3 52 -14 72 -24 34 -17 38 -17 43 -2 4 13 19 17 61 19
105 4 215 53 330 145 60 47 84 80 84 115 1 29 40 -29 40 -60 0 -39 -14 -69
-49 -103 -17 -16 -31 -40 -31 -53 0 -14 -4 -21 -11 -16 -8 4 -9 -1 -4 -17 9
-26 35 -50 47 -43 5 3 8 1 8 -5 0 -6 18 -20 41 -31 23 -12 39 -24 36 -27 -3
-2 -14 0 -25 6 -28 15 -32 14 -25 -6 4 -11 3 -14 -6 -9 -21 13 -71 18 -71 7 0
-6 16 -13 35 -17 19 -3 37 -10 40 -14 7 -11 -106 -4 -135 9 -22 10 -21 11 15
7 l40 -5 -37 17 c-45 20 -48 32 -10 33 16 1 20 3 10 6 -24 6 -22 18 5 31 21
10 21 11 -7 11 l-29 1 21 23 c12 13 22 29 22 35 0 7 5 12 10 12 6 0 10 9 10
20 0 26 -8 25 -34 -2 -11 -13 -45 -42 -73 -64 l-53 -42 35 -4 c19 -2 35 0 35
4 0 18 16 6 17 -13 2 -18 -2 -20 -25 -15 l-27 6 25 -15 25 -16 -29 4 c-16 3
-46 -1 -67 -8 -35 -13 -43 -11 -118 18 -77 31 -100 47 -64 47 9 0 14 2 11 5
-3 4 -18 3 -33 -1 -22 -5 -26 -11 -21 -31 6 -22 5 -23 -16 -11 -13 7 -25 16
-28 19 -11 14 -50 29 -74 29 -19 0 -24 -4 -21 -20 4 -23 -2 -24 -39 -10 -17 6
-26 6 -26 -1 0 -6 -7 -6 -20 1 -11 6 -20 7 -20 3 0 -4 -6 0 -12 9 -16 19 -54
29 -128 34 l-55 3 35 -14 c40 -16 30 -19 -17 -6 -19 6 -35 6 -38 1 -3 -5 17
-12 45 -16 46 -6 72 -24 33 -24 -24 1 -185 35 -248 53 -62 17 -130 28 -121 19
10 -9 96 -31 126 -32 20 0 22 -2 10 -10 -11 -8 -9 -9 10 -5 18 4 28 0 37 -13
11 -19 11 -19 -49 -1 -70 22 -191 48 -413 90 -88 16 -176 33 -195 38 l-35 9
35 2 c19 1 51 2 70 2 32 -1 33 0 10 7 -26 9 -25 10 36 29 23 7 35 7 44 -1 10
-9 11 -9 8 3 -3 8 2 21 11 28 13 10 9 11 -24 6 -22 -4 -44 -9 -50 -12 -25 -15
-144 -54 -175 -58 l-35 -4 40 20 c22 11 33 20 25 20 -27 1 17 21 83 37 34 9
67 19 72 23 6 4 27 13 48 19 20 7 37 17 37 22 0 5 -2 9 -4 9 -2 0 -11 3 -20 6
-10 4 -16 1 -16 -8 0 -10 -12 -13 -42 -11 -39 2 -40 1 -13 -6 l30 -9 -27 -1
c-16 0 -28 -6 -28 -12 0 -6 -7 -9 -15 -5 -8 3 -27 1 -42 -5 -19 -7 -29 -7 -31
0 -2 6 -8 9 -13 5 -5 -3 -9 0 -9 5 0 10 24 15 72 15 9 0 15 3 12 8 -3 4 -19 8
-36 8 -21 0 -31 6 -35 20 -7 25 -23 26 -23 3 0 -10 -16 -38 -35 -62 -35 -44
-35 -44 -35 6 0 4 8 8 18 8 12 0 16 7 14 21 -2 14 6 27 23 38 14 9 23 22 19
28 -4 6 0 16 8 22 15 11 18 17 18 35 0 14 34 8 47 -9 6 -8 15 -12 19 -8 4 4
13 3 21 -3 9 -9 13 -8 13 0 0 6 -6 14 -14 17 -8 3 -17 16 -20 30 -4 13 -11 24
-16 24 -6 0 -15 11 -20 25 l-10 25 -42 -17 c-24 -9 -50 -21 -58 -26 -8 -5 -3
2 13 16 15 15 26 32 25 39 -6 26 43 20 67 -7 13 -16 28 -24 34 -21 6 4 34 -13
62 -38 28 -25 55 -46 60 -46 13 0 -1 30 -15 30 -6 0 -27 16 -46 35 -19 19 -39
35 -45 35 -18 0 -56 31 -50 41 7 11 22 12 27 1z m-1697 -22 c24 -6 19 -8 -30
-9 -78 -1 -189 -33 -240 -69 -46 -32 -78 -83 -77 -122 0 -16 -6 -31 -14 -34
-8 -3 -14 -1 -14 5 0 6 -7 17 -16 26 -43 44 59 164 168 198 46 15 174 17 223
5z m2562 -6 c65 -22 126 -68 146 -110 26 -54 31 -107 13 -140 -13 -25 -15 -26
-17 -9 -1 11 0 30 0 41 3 29 -25 93 -52 123 -39 42 -130 78 -220 87 -60 5 -75
9 -57 15 45 13 138 9 187 -7z m-4372 -169 c6 -106 24 -180 25 -105 l1 35 13
-38 c48 -132 196 -251 361 -291 l60 -14 -56 -1 c-62 -1 -165 27 -218 59 -25
16 -37 18 -45 10 -8 -8 -7 -11 4 -8 8 2 14 -1 15 -7 1 -22 50 -65 96 -84 26
-12 50 -25 53 -30 4 -5 16 -7 29 -5 20 4 20 4 2 -5 -19 -8 -18 -9 8 -16 15 -4
26 -10 23 -12 -9 -9 -82 20 -141 58 -69 44 -155 137 -114 124 22 -7 22 -6 10
9 -13 15 -16 15 -29 2 -13 -13 -13 -20 3 -63 41 -109 123 -254 179 -317 18
-20 26 -24 26 -13 0 11 10 6 32 -16 18 -18 32 -35 30 -39 -1 -4 5 -5 13 -2 9
4 15 0 15 -9 0 -18 -28 -16 -40 2 -4 8 -12 11 -18 7 -6 -3 -13 3 -17 14 -4 11
-10 18 -15 15 -5 -3 -29 18 -54 47 -25 29 -46 48 -46 42 0 -15 43 -71 80 -104
43 -39 148 -110 162 -110 17 0 -13 31 -41 42 -21 7 -23 11 -11 18 10 7 18 5
25 -4 6 -7 14 -13 20 -14 11 -1 24 -34 18 -44 -2 -5 1 -8 8 -8 7 0 10 -3 6 -6
-3 -3 -27 4 -52 15 -61 27 -66 26 -31 -4 43 -37 14 -30 -52 11 -65 41 -112 83
-112 98 0 6 7 2 15 -8 8 -11 18 -17 21 -13 3 3 -17 30 -45 59 -49 50 -119 176
-191 345 -34 82 -70 242 -59 270 5 13 9 45 9 71 0 51 11 154 16 149 2 -1 6
-52 9 -112z m5992 -12 c-4 -32 -9 -69 -12 -83 -5 -24 -5 -24 4 -2 6 12 15 22
20 22 18 0 -2 -74 -36 -135 -18 -33 -36 -68 -39 -77 -4 -10 -10 -18 -14 -18
-5 0 -13 -13 -19 -30 -10 -31 -29 -38 -48 -19 -7 7 -29 0 -75 -25 -36 -20 -73
-36 -84 -35 -18 0 -18 1 1 10 20 8 -45 4 -105 -7 -19 -4 -22 -2 -10 6 8 5 26
10 39 10 38 0 204 83 250 126 56 50 87 114 108 224 10 49 20 90 22 90 2 0 1
-26 -2 -57z m-5117 0 c0 -101 201 -261 341 -271 33 -2 59 -7 59 -11 0 -3 -25
-21 -55 -39 -52 -32 -64 -45 -47 -55 4 -2 1 -2 -6 -1 -7 2 -17 -6 -22 -19 -9
-22 -9 -22 -9 -1 -1 21 -1 21 -38 3 -34 -16 -72 -22 -211 -34 -37 -3 -42 -2
-31 11 6 8 26 14 43 12 53 -3 96 2 96 11 0 5 -17 5 -41 0 -59 -14 -60 -3 -3
15 30 10 37 15 19 12 -16 -2 -61 -13 -100 -25 -89 -28 -156 -41 -149 -30 3 5
13 9 23 9 10 0 21 3 25 8 8 8 12 8 54 12 l27 2 -25 7 c-19 6 -24 13 -22 32 4
28 31 61 43 53 13 -8 11 20 -3 34 -7 7 -16 8 -22 3 -18 -15 -17 115 1 187 8
35 13 71 10 82 -3 14 1 17 19 16 17 -1 24 -7 24 -23z m2711 -522 c6 9 8 -1 8
-31 -1 -40 -2 -41 -8 -15 -6 27 -9 22 -21 -38 -11 -54 -20 -74 -44 -93 -59
-51 -262 -137 -241 -104 3 6 13 10 21 10 8 0 14 7 14 15 0 8 -4 15 -10 15 -5
0 -10 -4 -10 -9 0 -5 -9 -11 -21 -14 -18 -5 -18 -3 -7 11 7 9 15 19 18 22 3 3
12 18 20 33 13 27 78 67 107 67 8 0 11 5 8 10 -10 16 5 12 23 -6 14 -15 17
-14 33 7 45 61 48 64 49 49 0 -21 -52 -80 -72 -80 -8 0 -21 -7 -28 -15 -14
-17 -45 -21 -35 -5 3 6 1 10 -5 10 -7 0 -10 -7 -7 -15 4 -9 -6 -24 -25 -38
-17 -14 -28 -29 -24 -36 11 -17 26 -13 26 7 0 17 65 60 83 54 6 -2 21 7 35 20
20 18 24 19 19 6 -10 -29 0 -20 19 15 9 17 23 45 31 60 8 16 18 47 21 70 3 23
8 34 10 23 3 -15 6 -16 13 -5z m2275 -16 c0 -21 -3 -30 -8 -22 -11 17 -29 -12
-22 -36 7 -21 -21 -68 -37 -64 -7 1 -12 -7 -14 -19 -1 -20 -41 -84 -51 -84 -3
0 4 16 16 36 12 19 20 37 18 40 -6 5 -68 -81 -68 -94 0 -14 -111 -127 -140
-142 -22 -11 -20 -7 9 24 37 39 29 46 -22 20 -26 -13 -20 -4 33 50 48 49 70
65 85 61 11 -3 14 -2 8 1 -7 3 -13 10 -13 15 0 6 6 9 13 8 23 -3 37 1 37 11 0
5 -8 7 -17 3 -16 -6 -16 -4 1 15 10 12 22 19 27 16 4 -2 13 6 20 18 7 13 15
25 19 28 4 3 19 26 34 53 15 26 31 47 35 47 4 0 13 11 19 25 15 33 18 32 18
-10z m-5591 -11 c11 -8 20 -25 20 -37 0 -13 9 -26 23 -32 12 -5 22 -13 22 -17
0 -5 5 -8 11 -8 5 0 7 5 4 10 -3 6 -3 10 1 10 13 0 74 -74 74 -90 1 -22 49
-55 62 -42 7 7 21 2 45 -14 20 -13 42 -24 49 -24 7 0 11 -6 8 -13 -2 -7 9 -17
28 -25 17 -6 29 -14 26 -17 -8 -9 -102 37 -116 57 -7 10 -19 18 -25 18 -8 -1
-7 -5 3 -13 8 -7 24 -23 35 -36 l20 -23 -27 13 c-15 6 -25 16 -22 20 3 5 0 9
-6 9 -45 0 -240 188 -240 231 0 6 -8 18 -17 25 -10 7 -13 13 -8 13 6 0 19 -6
30 -15z m2268 -111 c-5 -12 -1 -14 14 -9 13 4 26 -1 38 -14 10 -11 28 -20 40
-20 11 0 26 -5 33 -12 8 -8 12 -8 12 -1 0 6 -13 16 -30 22 -32 11 -39 21 -15
21 8 0 30 -15 48 -32 18 -18 29 -30 24 -26 -5 3 -16 4 -23 1 -8 -3 -22 0 -32
7 -9 7 4 -8 31 -33 52 -50 59 -64 25 -47 -21 11 -21 10 1 -8 14 -11 30 -18 35
-16 6 2 22 -7 36 -21 14 -15 36 -37 49 -51 13 -13 20 -24 14 -24 -5 0 -27 18
-48 40 -38 39 -71 57 -44 23 13 -15 12 -15 -7 -5 -11 6 -27 18 -34 27 -7 9
-27 23 -43 32 -47 24 -127 103 -149 148 -19 36 -19 38 -3 25 17 -14 18 -13 12
5 -7 19 -6 19 7 2 8 -11 12 -26 9 -34z m-251 -60 c-5 -74 -8 -81 -22 -46 -12
34 -30 36 -30 3 0 -26 38 -60 69 -61 25 -1 25 -1 -4 -9 -53 -14 -228 -79 -285
-106 -44 -21 -186 -89 -282 -136 -11 -5 -18 -4 -18 2 0 5 4 10 10 10 5 0 14 9
20 21 11 19 10 20 -10 9 -36 -19 -33 -5 5 24 19 15 35 23 35 19 0 -4 5 -1 10
7 6 10 10 11 10 3 0 -7 5 -13 11 -13 6 0 8 9 4 20 -4 13 -2 20 7 20 10 0 10 2
-1 9 -11 7 -9 10 8 16 11 3 21 10 21 15 0 7 60 40 74 40 3 0 6 -7 6 -16 0 -8
5 -12 10 -9 6 3 10 15 10 25 0 15 6 19 23 17 16 -1 21 3 19 16 -2 11 4 17 17
17 11 0 23 4 26 10 3 5 15 15 27 21 13 7 18 7 14 1 -3 -6 -2 -13 4 -17 5 -3
10 -2 10 4 0 5 16 15 35 21 19 6 37 20 40 31 4 10 12 19 19 19 8 0 19 7 27 16
9 11 22 14 41 10 23 -5 28 -2 28 14 0 11 3 20 8 20 4 0 6 -21 4 -47z m1486
-42 c3 -10 0 -12 -12 -8 -11 4 -16 1 -16 -9 0 -12 7 -15 29 -12 20 3 33 -1 42
-14 8 -10 19 -18 26 -18 6 0 17 -8 23 -17 8 -15 10 -13 8 12 -2 23 2 30 17 33
16 3 18 1 8 -9 -19 -19 -16 -28 8 -22 11 3 30 1 42 -5 12 -6 39 -18 60 -27 36
-17 47 -37 27 -50 -13 -8 -3 -25 16 -25 8 0 14 9 14 20 0 21 15 27 25 9 4 -6
13 -8 21 -5 7 3 16 0 20 -6 4 -6 3 -8 -4 -4 -6 3 -13 2 -16 -3 -7 -11 22 -24
35 -15 5 3 25 -11 45 -30 25 -24 32 -36 21 -36 -9 0 -23 10 -31 22 -19 26 -35
15 -18 -12 9 -14 9 -20 -1 -23 -7 -3 0 -6 16 -6 15 -1 27 -5 27 -11 0 -18 -20
-11 -133 49 -130 69 -221 105 -309 122 -72 14 -115 33 -55 25 40 -5 40 -5 31
18 -5 13 -10 14 -20 5 -10 -8 -17 -7 -29 4 -18 19 -19 27 -2 27 8 0 22 9 33
20 21 22 45 22 52 1z m-1473 -171 c-9 -15 15 -42 32 -36 16 7 17 -6 1 -23 -11
-11 -9 -11 9 -2 12 6 28 11 35 11 21 -1 -41 -31 -72 -35 -95 -12 -220 -56
-345 -120 -44 -23 -87 -40 -95 -37 -13 3 -13 2 -1 -6 21 -15 -23 -36 -47 -23
-16 10 -16 10 1 11 11 0 17 6 15 18 -2 11 4 18 20 20 12 2 22 7 22 12 0 5 6 7
14 4 8 -3 20 4 28 15 8 12 17 19 20 16 3 -3 11 1 17 9 7 8 19 12 27 9 9 -3 14
2 14 16 0 16 6 20 23 18 12 -1 25 -6 29 -12 4 -6 8 -2 8 8 0 9 1 17 3 17 1 0
17 4 35 10 28 7 33 7 28 -5 -3 -8 -1 -15 4 -15 16 0 21 19 10 40 -9 16 -8 20
5 20 8 0 15 5 15 10 0 6 7 10 15 10 7 0 18 8 24 17 6 12 22 18 50 18 23 0 41
3 41 7 0 5 5 8 11 8 5 0 7 -5 4 -10z m-1402 -67 c43 -14 76 -27 74 -29 -2 -2
-46 5 -98 16 -145 29 -335 28 -392 -2 -18 -9 -182 0 -172 10 3 3 62 13 133 23
176 24 348 18 455 -18z m5397 -388 c-13 -16 0 -67 16 -61 19 7 18 -12 -1 -30
-17 -17 -21 -59 -5 -49 6 3 10 12 10 20 0 8 4 16 9 19 9 6 8 -10 -5 -88 -5
-30 -4 -37 6 -31 10 6 12 4 7 -9 -4 -10 -7 -40 -7 -67 0 -36 -4 -49 -15 -49
-9 0 -12 6 -9 18 5 14 4 15 -5 2 -13 -18 -15 -43 -3 -36 14 9 -17 -197 -35
-233 -19 -37 -43 -67 -107 -135 -44 -46 -38 -33 16 35 28 35 36 53 33 76 -2
16 1 36 6 44 5 8 9 10 9 5 0 -5 7 -3 15 4 8 7 12 17 9 22 -4 6 -9 5 -14 -2 -5
-8 -7 -3 -7 13 1 14 5 23 8 21 3 -2 12 9 18 24 12 26 12 26 -7 8 -20 -17 -20
-17 -24 6 -3 25 59 219 74 229 6 4 7 29 3 60 -3 30 -10 91 -15 136 -5 46 -12
87 -15 93 -3 6 -3 20 1 32 6 20 9 17 24 -22 10 -25 14 -49 10 -55z m-6621
-127 c-4 -70 0 -105 10 -90 6 10 10 8 14 -9 8 -29 2 -35 -17 -20 -12 10 -15 5
-21 -28 -7 -42 0 -65 16 -56 5 4 9 -2 10 -12 0 -16 1 -16 9 2 15 34 12 49 -5
35 -13 -10 -15 -9 -15 8 0 12 4 23 9 26 16 10 34 -24 36 -72 1 -28 7 -46 13
-45 7 2 14 -8 18 -22 3 -14 11 -25 18 -25 6 0 4 -5 -4 -10 -13 -8 -12 -10 3
-10 19 0 24 -20 5 -21 -7 0 -1 -5 14 -10 17 -7 25 -15 21 -25 -3 -7 2 -17 11
-20 11 -4 14 -13 11 -24 -3 -10 -1 -21 5 -25 5 -3 10 -13 10 -21 0 -8 -4 -13
-9 -10 -5 3 -11 -4 -14 -15 -3 -12 -10 -18 -16 -15 -6 4 -7 15 -2 29 8 22 -5
67 -20 67 -13 0 -20 -18 -9 -25 15 -9 12 -38 -6 -61 -15 -18 -15 -18 -10 8 4
15 2 30 -4 33 -5 3 -10 -2 -10 -12 0 -10 -4 -24 -9 -31 -7 -11 -9 -10 -14 3
-4 9 -3 13 3 10 20 -12 9 36 -19 89 -46 83 -64 189 -56 320 3 60 8 113 11 118
11 17 15 6 13 -34z m3989 -388 c53 -6 160 -17 237 -25 215 -22 221 -23 364
-13 73 5 135 7 138 5 2 -3 -2 -11 -9 -18 -26 -27 -56 -85 -72 -138 -12 -41
-16 -99 -16 -230 0 -105 -6 -210 -14 -261 -22 -131 -26 -215 -24 -470 4 -376
2 -420 -21 -486 -24 -69 -83 -128 -146 -146 -22 -6 -46 -18 -52 -27 -7 -8 -13
-11 -13 -7 0 4 13 24 30 44 78 98 95 240 45 390 -9 28 -10 40 -3 36 13 -8 13
-9 -32 101 -37 88 -111 205 -172 271 -54 59 -212 171 -303 217 -200 100 -477
123 -685 58 -90 -28 -220 -105 -283 -166 -140 -135 -357 -460 -412 -616 -45
-126 -90 -413 -80 -508 8 -71 27 -151 35 -146 3 2 5 33 4 69 -1 37 2 69 7 72
5 3 9 -3 9 -13 0 -11 5 -24 11 -30 7 -7 12 -53 12 -118 0 -76 4 -105 12 -101
6 2 12 -1 12 -7 1 -19 7 -42 14 -47 3 -3 29 -63 58 -135 29 -71 61 -142 71
-157 11 -15 20 -31 20 -35 1 -17 133 -159 188 -200 67 -52 193 -114 277 -139
64 -19 277 -26 345 -12 24 6 30 5 20 -2 -22 -14 -10 -12 61 9 35 11 80 22 99
26 66 13 136 54 203 120 52 51 67 71 67 94 0 17 -6 31 -16 35 -31 12 -44 6
-44 -19 0 -14 -8 -29 -19 -35 -25 -13 -41 -13 -41 0 0 6 6 10 14 10 23 0 26
13 10 40 -11 20 -14 21 -12 6 3 -17 -4 -20 -46 -23 -27 -2 -55 2 -62 8 -8 6
-20 9 -29 6 -19 -8 -29 10 -27 45 1 15 -2 28 -8 28 -15 0 -12 12 10 40 l19 25
-5 -25 c-5 -21 -4 -22 6 -7 8 13 24 17 65 17 30 0 57 4 60 10 3 6 17 10 31 10
13 0 24 4 24 8 0 5 -24 7 -54 4 -30 -2 -70 1 -90 8 -38 12 -76 52 -76 79 1 13
2 13 11 -2 6 -11 30 -27 53 -38 22 -10 37 -19 31 -20 -5 -1 6 -5 25 -8 40 -8
76 4 85 27 5 13 3 13 -13 -1 -10 -9 -27 -17 -38 -17 -15 0 -12 4 11 18 38 24
47 35 80 102 15 30 33 68 42 83 15 29 14 162 -2 201 -6 14 -5 17 3 12 15 -9
15 -3 -2 61 -17 63 -38 113 -48 113 -4 0 -13 10 -19 23 -11 20 -11 21 4 9 9
-8 43 -16 76 -19 61 -6 85 -24 60 -47 -9 -8 -10 -8 -5 1 3 6 2 14 -3 17 -18
11 -22 -33 -10 -96 15 -75 16 -97 19 -299 1 -135 4 -161 21 -189 13 -20 25
-30 34 -26 8 3 15 1 15 -4 0 -6 5 -10 11 -10 5 0 8 4 5 9 -3 5 16 11 42 15 83
11 220 137 206 191 -5 20 -3 23 14 18 30 -7 86 23 121 68 53 65 232 139 336
139 29 0 88 -51 67 -58 -7 -2 -10 -13 -7 -25 6 -21 3 -22 -72 -22 -61 0 -87
-5 -121 -23 -24 -12 -47 -20 -51 -18 -4 3 -20 -4 -37 -15 -27 -19 -28 -20 -4
-14 19 5 15 0 -16 -22 -23 -15 -57 -44 -76 -63 -47 -48 -167 -198 -191 -237
-21 -37 -31 -43 -22 -13 10 32 -12 23 -23 -9 -13 -37 -103 -163 -156 -219
-218 -230 -749 -379 -1131 -317 -360 58 -625 281 -822 691 -111 231 -145 356
-145 529 1 269 79 562 226 850 28 55 50 106 49 112 0 7 3 10 8 8 4 -3 13 5 20
17 29 58 97 134 188 213 78 67 115 107 165 183 65 98 127 166 201 218 98 70
165 128 196 172 18 26 46 59 62 73 l29 26 -34 24 c-22 16 -47 24 -75 24 -22 0
-36 3 -30 7 26 17 75 7 115 -22 l41 -30 65 35 c59 31 161 58 256 68 79 8 357
6 448 -3z m-3339 -169 c7 -11 16 -21 22 -21 6 0 7 -5 4 -11 -5 -6 -12 -4 -21
8 -16 21 -15 23 -18 -48 -1 -30 -6 -61 -11 -69 -5 -8 -4 -11 3 -6 17 10 23
-10 12 -40 -13 -33 -8 -40 14 -19 15 15 16 14 16 -12 0 -31 -15 -53 -34 -49
-6 2 -8 1 -3 -1 11 -7 8 -113 -3 -113 -5 0 -10 -7 -10 -15 0 -8 5 -15 12 -15
9 0 9 -3 1 -11 -7 -7 -9 -25 -6 -40 3 -18 1 -29 -6 -29 -7 0 -11 25 -11 71 0
44 4 68 10 64 6 -3 10 -1 10 4 0 6 -5 11 -11 11 -7 0 -9 69 -8 213 2 217 8
277 20 196 4 -26 12 -56 18 -68z m3365 -1008 c38 -8 84 -21 102 -29 35 -15 53
-34 32 -34 -23 0 -50 -73 -51 -138 -1 -50 -4 -62 -17 -62 -11 0 -21 14 -29 39
-22 77 -124 128 -232 118 -150 -13 -280 -120 -369 -302 -65 -134 -79 -213 -61
-338 17 -126 65 -208 164 -281 20 -16 37 -35 37 -43 0 -8 16 -47 36 -86 55
-109 64 -139 48 -155 -8 -7 -14 -8 -14 -2 0 5 -4 10 -10 10 -5 0 -10 -9 -10
-20 0 -25 -15 -26 -32 -2 -7 10 -20 22 -28 27 -13 8 -13 6 -2 -8 13 -15 9 -37
-7 -37 -15 0 -71 57 -71 73 0 10 -6 17 -14 17 -8 0 -28 14 -46 30 -18 17 -30
24 -27 16 3 -8 0 -17 -7 -19 -10 -4 -12 1 -8 15 4 18 3 19 -16 9 -37 -20 -103
6 -151 58 -13 14 -20 20 -16 13 9 -17 -2 -62 -16 -62 -8 0 -7 5 1 15 17 21 -3
44 -33 39 l-22 -5 23 10 c28 13 28 22 -3 55 -14 15 -25 22 -25 15 0 -6 -7 -9
-15 -5 -8 3 -15 1 -15 -4 0 -6 -7 -10 -14 -10 -33 0 -109 137 -120 215 -5 31
-4 36 4 20 9 -18 10 -17 5 5 -2 14 -5 33 -5 43 0 12 -5 16 -12 11 -10 -6 -10
-4 0 7 14 15 16 49 3 49 -5 0 -12 -10 -15 -22 -2 -13 -4 9 -2 47 1 60 8 83 44
155 90 182 262 374 420 467 114 67 176 92 257 103 79 11 252 2 339 -17z"/>
<path d="M5642 6932 c-12 -12 -25 -40 -28 -62 -5 -33 -10 -40 -23 -34 -29 14
-139 16 -196 4 -72 -15 -197 -78 -257 -130 -93 -80 -135 -182 -92 -224 19 -19
13 -19 204 -17 255 3 370 -24 613 -147 131 -66 156 -75 217 -80 92 -6 148 20
188 86 24 42 27 57 26 132 -1 200 -113 324 -358 394 -90 26 -172 34 -161 16 3
-5 -2 -10 -11 -10 -10 0 -36 21 -59 47 l-41 47 -22 -22z"/>
<path d="M4255 4767 c-9 -19 -31 -42 -49 -52 -26 -14 -32 -23 -28 -42 5 -27
22 -42 22 -19 0 9 7 16 15 16 8 0 15 -7 15 -15 0 -8 6 -15 14 -15 8 0 16 -7
20 -15 3 -9 0 -15 -9 -15 -20 0 -19 -9 6 -90 24 -81 99 -232 117 -238 8 -2 10
2 5 15 -3 10 15 -8 42 -39 49 -60 58 -68 49 -44 -7 18 12 30 22 15 4 -8 3 -9
-4 -5 -7 4 -12 4 -12 0 0 -14 62 -104 71 -104 6 0 9 -8 7 -17 -2 -10 2 -18 8
-18 6 0 27 -13 45 -29 37 -31 124 -74 207 -101 56 -18 88 -13 34 6 -18 6 -30
15 -27 19 3 4 -2 11 -11 14 -8 3 -12 2 -9 -4 3 -6 2 -10 -4 -10 -5 0 -14 6
-18 13 -9 15 -79 57 -94 57 -6 0 -7 -5 -3 -12 4 -7 3 -8 -5 -4 -6 4 -9 11 -7
15 3 4 -16 25 -42 46 -30 24 -38 29 -23 12 14 -15 20 -27 14 -27 -11 0 -51 41
-53 55 -1 6 -6 9 -11 8 -9 -3 -59 58 -59 72 0 5 16 -7 36 -26 34 -31 35 -32
19 -6 -10 15 -26 32 -36 38 -11 5 -19 15 -19 22 0 7 -11 22 -23 34 -31 29 -59
89 -98 208 -18 55 -38 109 -45 120 -7 11 -15 55 -19 98 -4 42 -11 77 -16 77
-6 0 -8 -25 -5 -62 3 -35 5 -63 6 -63 1 0 3 -16 6 -35 10 -79 73 -234 127
-313 22 -31 38 -60 35 -62 -10 -10 -72 79 -114 163 -9 17 -20 32 -25 32 -6 0
-5 -9 1 -21 6 -11 9 -25 7 -32 -3 -7 -8 -4 -12 8 -4 11 -13 33 -20 50 -8 18
-10 34 -5 40 9 11 -6 85 -37 181 -15 47 -15 52 2 87 10 21 15 40 12 43 -3 3
-13 -10 -22 -29z"/>
<path d="M6270 4585 c-7 -8 -19 -15 -26 -15 -8 0 -14 -6 -14 -13 0 -19 -35
-49 -45 -40 -4 5 -5 2 0 -5 4 -8 0 -25 -12 -40 -11 -15 -22 -35 -26 -44 -3
-10 -11 -18 -16 -18 -6 0 -7 8 -4 18 6 15 5 16 -13 2 -10 -8 -26 -21 -34 -29
-25 -24 -105 -56 -152 -60 -18 -2 -6 -20 15 -24 l22 -4 -22 -2 c-13 0 -23 -5
-23 -10 0 -10 50 -9 67 2 49 31 129 67 140 63 7 -3 13 1 13 8 0 8 7 16 15 20
8 3 15 10 15 16 0 17 52 70 62 64 6 -4 5 3 -1 14 -9 16 -6 23 14 38 14 10 25
24 25 30 0 7 7 14 15 18 16 6 21 26 6 26 -5 0 -14 -7 -21 -15z"/>
<path d="M5822 4191 c-40 -61 -137 -152 -205 -192 -39 -22 -61 -28 -87 -25
-19 3 -27 2 -17 0 9 -3 17 -10 17 -15 0 -5 -8 -9 -17 -9 -14 0 -15 -2 -5 -9
22 -14 -12 -21 -48 -11 -22 6 -52 5 -94 -5 -33 -8 -98 -17 -144 -21 -60 -5
-80 -10 -72 -18 7 -7 64 -11 153 -11 162 0 165 1 310 88 71 43 111 75 148 119
42 50 107 158 96 158 -2 0 -18 -22 -35 -49z"/>
</g>
</svg>
